<svg width="395" height="110" viewBox="0 0 395 110" fill="none" xmlns="http://www.w3.org/2000/svg">
<g filter="url(#filter0_d_271_10790)">
<path d="M384.077 2H104.424C104.473 2.22819 104.507 2.46329 104.507 2.70531C104.507 4.49624 103.054 5.94143 101.267 5.94143C99.4813 5.94143 98.0275 4.48932 98.0275 2.70531C98.0275 2.46329 98.0621 2.22819 98.1105 2H10.923C7.1015 2 4 5.09782 4 8.91479V97.0852C4 100.902 7.1015 104 10.923 104H98.0275C98.0275 102.209 99.4813 100.764 101.267 100.764C103.054 100.764 104.507 102.216 104.507 104H384.077C387.898 104 391 100.902 391 97.0852V8.91479C391 5.09782 387.898 2 384.077 2ZM101.267 92.7704C99.4744 92.7704 98.0275 91.3183 98.0275 89.5343C98.0275 87.7503 99.4813 86.2981 101.267 86.2981C103.054 86.2981 104.507 87.7503 104.507 89.5343C104.507 91.3183 103.054 92.7704 101.267 92.7704ZM101.267 78.2977C99.4744 78.2977 98.0275 76.8456 98.0275 75.0616C98.0275 73.2776 99.4813 71.8255 101.267 71.8255C103.054 71.8255 104.507 73.2776 104.507 75.0616C104.507 76.8456 103.054 78.2977 101.267 78.2977ZM101.267 63.8251C99.4744 63.8251 98.0275 62.373 98.0275 60.589C98.0275 58.805 99.4813 57.3529 101.267 57.3529C103.054 57.3529 104.507 58.805 104.507 60.589C104.507 62.373 103.054 63.8251 101.267 63.8251ZM101.267 49.3525C99.4744 49.3525 98.0275 47.9003 98.0275 46.1163C98.0275 44.3323 99.4813 42.8802 101.267 42.8802C103.054 42.8802 104.507 44.3323 104.507 46.1163C104.507 47.9003 103.054 49.3525 101.267 49.3525ZM101.267 34.8798C99.4744 34.8798 98.0275 33.4277 98.0275 31.6437C98.0275 29.8597 99.4813 28.4076 101.267 28.4076C103.054 28.4076 104.507 29.8597 104.507 31.6437C104.507 33.4277 103.054 34.8798 101.267 34.8798ZM101.267 20.4072C99.4744 20.4072 98.0275 18.9551 98.0275 17.171C98.0275 15.387 99.4813 13.9349 101.267 13.9349C103.054 13.9349 104.507 15.387 104.507 17.171C104.507 18.9551 103.054 20.4072 101.267 20.4072Z" fill="#FDFDFD"/>
</g>
<defs>
<filter id="filter0_d_271_10790" x="0" y="0" width="395" height="110" filterUnits="userSpaceOnUse" color-interpolation-filters="sRGB">
<feFlood flood-opacity="0" result="BackgroundImageFix"/>
<feColorMatrix in="SourceAlpha" type="matrix" values="0 0 0 0 0 0 0 0 0 0 0 0 0 0 0 0 0 0 127 0" result="hardAlpha"/>
<feOffset dy="2"/>
<feGaussianBlur stdDeviation="2"/>
<feComposite in2="hardAlpha" operator="out"/>
<feColorMatrix type="matrix" values="0 0 0 0 0 0 0 0 0 0 0 0 0 0 0 0 0 0 0.1 0"/>
<feBlend mode="normal" in2="BackgroundImageFix" result="effect1_dropShadow_271_10790"/>
<feBlend mode="normal" in="SourceGraphic" in2="effect1_dropShadow_271_10790" result="shape"/>
</filter>
</defs>
</svg>
