<svg width="18" height="22" viewBox="0 0 18 22" fill="none" xmlns="http://www.w3.org/2000/svg">
<path d="M14.8498 5.50188H14.3004C14.3004 2.4687 11.8392 0.00752651 8.79849 0C5.76531 0 3.30414 2.46117 3.29661 5.50188H2.74718C1.22682 5.50188 0 6.73623 0 8.24906V19.2528C0 20.7732 1.23435 22 2.74718 22H11.5532C11.8543 22 12.1026 21.7516 12.1026 21.4506C12.1026 21.1495 11.8543 20.9011 11.5532 20.9011H2.73965C1.82894 20.9011 1.09134 20.1635 1.09134 19.2528V8.24906C1.09134 7.33835 1.82894 6.60075 2.73965 6.60075H14.8423C15.753 6.60075 16.4906 7.33835 16.4906 8.24906V14.8498C16.4906 15.1509 16.739 15.3992 17.04 15.3992C17.3411 15.3992 17.5895 15.1509 17.5895 14.8498V8.24906C17.5895 6.7287 16.3551 5.50188 14.8423 5.50188H14.8498ZM8.79849 1.1064C11.2296 1.1064 13.194 3.07834 13.2015 5.50941H4.39548C4.39548 3.07834 6.36743 1.11392 8.79849 1.1064Z" fill="black"/>
<path d="M16.3326 19.9675L13.8338 17.4687C14.6767 16.1967 14.323 14.4882 13.0585 13.6452C11.7941 12.8023 10.078 13.156 9.23507 14.4205C8.3921 15.6924 8.74584 17.401 10.0103 18.2439C10.9361 18.8536 12.1328 18.8536 13.0585 18.2439L15.5573 20.7427C15.7756 20.9535 16.1218 20.9459 16.3326 20.7277C16.5358 20.5169 16.5358 20.1782 16.3326 19.96V19.9675ZM9.88987 15.9559C9.88987 15.0452 10.6275 14.3076 11.5382 14.3C12.4489 14.2925 13.1865 15.0376 13.194 15.9483C13.194 16.3849 13.0284 16.7988 12.7198 17.1074C12.7198 17.1074 12.7123 17.1074 12.7048 17.1149C12.6973 17.1225 12.7048 17.1225 12.6973 17.13C12.05 17.7698 11.0038 17.7547 10.364 17.1074C10.063 16.7988 9.88987 16.3849 9.88987 15.9483V15.9559Z" fill="black"/>
</svg>
