<svg width="28" height="16" viewBox="0 0 28 16" fill="none" xmlns="http://www.w3.org/2000/svg">
<path d="M20.1975 1V12.9H11.745C11.7105 12.3631 11.4728 11.8595 11.0803 11.4914C10.6878 11.1234 10.1699 10.9186 9.63189 10.9186C9.09384 10.9186 8.57597 11.1234 8.18348 11.4914C7.791 11.8595 7.55333 12.3631 7.51876 12.9H5.375V1H20.1975Z" stroke="#3C4044" stroke-linecap="round" stroke-linejoin="round"/>
<path d="M27.2498 8.70001V12.9H25.841C25.8065 12.3631 25.5688 11.8595 25.1763 11.4914C24.7838 11.1234 24.2659 10.9186 23.7279 10.9186C23.1899 10.9186 22.672 11.1234 22.2795 11.4914C21.887 11.8595 21.6493 12.3631 21.6148 12.9H20.1973V4.5H23.146L27.2498 8.70001Z" stroke="#3C4044" stroke-linecap="round" stroke-linejoin="round"/>
<path d="M27.2498 8.7002V12.9002H25.841C25.8065 12.3633 25.5688 11.8596 25.1763 11.4916C24.7838 11.1236 24.2659 10.9188 23.7279 10.9188C23.1899 10.9188 22.672 11.1236 22.2795 11.4916C21.887 11.8596 21.6493 12.3633 21.6148 12.9002H20.1973V8.7002H27.2498Z" stroke="#3C4044" stroke-linecap="round" stroke-linejoin="round"/>
<path d="M9.62727 14.9998C10.7967 14.9998 11.7448 14.0596 11.7448 12.8998C11.7448 11.74 10.7967 10.7998 9.62727 10.7998C8.45781 10.7998 7.50977 11.74 7.50977 12.8998C7.50977 14.0596 8.45781 14.9998 9.62727 14.9998Z" stroke="#3C4044" stroke-linecap="round" stroke-linejoin="round"/>
<path d="M23.723 14.9998C24.8924 14.9998 25.8405 14.0596 25.8405 12.8998C25.8405 11.74 24.8924 10.7998 23.723 10.7998C22.5535 10.7998 21.6055 11.74 21.6055 12.8998C21.6055 14.0596 22.5535 14.9998 23.723 14.9998Z" stroke="#3C4044" stroke-linecap="round" stroke-linejoin="round"/>
<path d="M1 2.40039H3.28376" stroke="#3C4044" stroke-linecap="round" stroke-linejoin="round"/>
<path d="M1 5.2002H3.28376" stroke="#3C4044" stroke-linecap="round" stroke-linejoin="round"/>
<path d="M1 8H3.28376" stroke="#3C4044" stroke-linecap="round" stroke-linejoin="round"/>
</svg>
