<svg width="26" height="19" viewBox="0 0 26 19" fill="none" xmlns="http://www.w3.org/2000/svg">
<path d="M22.3187 4.5826H18.3089V2.86413C18.3089 1.2817 17.0272 0.00716032 15.4448 0C15.4162 0 15.3947 0.0143206 15.3732 0.0143206C15.3446 0.0143206 15.3231 0 15.3016 0H2.85697C1.2817 0 0 1.2817 0 2.86413V13.1678C0 14.5426 0.988122 15.7241 2.34142 15.9747C2.62784 17.5285 4.11718 18.5595 5.67097 18.2731C6.81662 18.0655 7.72599 17.1704 7.95512 16.032H14.9364C15.2515 17.5786 16.7623 18.581 18.3161 18.266C19.4403 18.0368 20.321 17.1561 20.5501 16.032H23.4715C24.4167 16.032 25.19 15.2658 25.19 14.3135V7.44673C25.19 5.8643 23.9083 4.58977 22.3259 4.5826H22.3187ZM5.14827 17.1776C4.20311 17.1776 3.42979 16.4115 3.42979 15.4591C3.42979 14.5068 4.19595 13.7407 5.14827 13.7407C6.10059 13.7407 6.86674 14.5068 6.86674 15.4591C6.86674 16.4043 6.10059 17.1776 5.14827 17.1776ZM14.9364 14.8863H7.95512C7.64006 13.3397 6.12924 12.3372 4.58261 12.6523C3.48708 12.8743 2.62068 13.7192 2.37006 14.8075C1.64687 14.5927 1.14565 13.9268 1.14565 13.1678V2.86413C1.14565 1.91897 1.91181 1.14565 2.86413 1.14565C2.86413 1.14565 2.87129 1.14565 2.87845 1.14565H15.3088C15.3088 1.14565 15.3517 1.13133 15.3732 1.13133C15.4018 1.13133 15.4233 1.14565 15.452 1.14565C16.3971 1.14565 17.1704 1.91181 17.1704 2.86413V12.6523C16.0463 12.8814 15.1727 13.7621 14.9364 14.8863ZM17.7433 17.1776C16.7981 17.1776 16.0248 16.4115 16.0248 15.4591C16.0248 14.5068 16.791 13.7407 17.7433 13.7407C18.6956 13.7407 19.4617 14.5068 19.4617 15.4591C19.4617 16.4043 18.6956 17.1776 17.7433 17.1776ZM24.0372 14.3135C24.0372 14.6285 23.7794 14.8863 23.4644 14.8863H20.543C20.3138 13.7621 19.4331 12.8886 18.3089 12.6523V8.34893C19.2756 9.58051 20.7506 10.2965 22.3187 10.3037H24.0372V14.3135ZM24.0372 9.16521H22.3187C20.3281 9.16521 18.6383 7.69734 18.3519 5.72826H22.3187C23.2639 5.72826 24.0372 6.49441 24.0372 7.44673V9.16521Z" fill="black"/>
<path d="M10.8189 4.67578H2.90674V5.68539H10.8189V4.67578Z" fill="black"/>
</svg>
