<svg width="22" height="22" viewBox="0 0 22 22" fill="none" xmlns="http://www.w3.org/2000/svg">
<path fill-rule="evenodd" clip-rule="evenodd" d="M10.6692 2.60634C12.679 2.41136 14.3751 3.99232 14.3751 5.96651V6.58247H7.6251V6.14068C7.6251 4.42062 9.03251 2.7591 10.6665 2.60661L10.6692 2.60634ZM6.1251 6.64576V6.14068C6.1251 3.73617 8.03533 1.34646 10.5257 1.11322C13.4287 0.832377 15.8751 3.11948 15.8751 5.96651V6.64577C17.2815 6.80444 18.3009 7.26315 18.9555 8.04137C19.7775 9.01866 19.8508 10.2987 19.7205 11.4758L19.7193 11.4863L19.7193 11.4863L19.0326 16.9799C18.9308 17.9246 18.6912 18.9742 17.8343 19.757C16.9823 20.5355 15.6694 20.9158 13.75 20.9158H8.25005C6.3307 20.9158 5.01783 20.5355 4.16575 19.757C3.3089 18.9742 3.06934 17.9246 2.96753 16.9799L2.28084 11.4863L2.27952 11.4758L2.2796 11.4758C2.14934 10.2987 2.2226 9.01866 3.04463 8.04137C3.69922 7.26313 4.71861 6.80441 6.1251 6.64576ZM4.45676 16.8003L3.76993 11.3057C3.65365 10.2488 3.77775 9.50007 4.19255 9.00691C4.60089 8.52144 5.46433 8.08247 7.33338 8.08247H14.6667C16.5358 8.08247 17.3992 8.52144 17.8075 9.00691C18.2223 9.50007 18.3464 10.2488 18.2302 11.3057L17.5433 16.8003L17.5432 16.8003L17.5418 16.8134C17.4507 17.6637 17.2631 18.2472 16.8226 18.6496C16.3753 19.0582 15.5157 19.4158 13.75 19.4158H8.25005C6.4844 19.4158 5.62477 19.0582 5.17747 18.6496C4.73697 18.2472 4.54938 17.6637 4.45828 16.8134L4.45839 16.8134L4.45676 16.8003ZM13.2043 11.0004C13.2043 10.4481 13.652 10.0004 14.2043 10.0004H14.2125C14.7648 10.0004 15.2125 10.4481 15.2125 11.0004C15.2125 11.5527 14.7648 12.0004 14.2125 12.0004H14.2043C13.652 12.0004 13.2043 11.5527 13.2043 11.0004ZM7.78673 10.0004C7.23444 10.0004 6.78673 10.4481 6.78673 11.0004C6.78673 11.5527 7.23444 12.0004 7.78673 12.0004H7.79496C8.34724 12.0004 8.79496 11.5527 8.79496 11.0004C8.79496 10.4481 8.34724 10.0004 7.79496 10.0004H7.78673Z" fill="#AAAAAA"/>
</svg>
