<svg width="32" height="29" viewBox="0 0 32 29" fill="none" xmlns="http://www.w3.org/2000/svg">
<path d="M23.167 27.0264C24.4447 27.0264 25.4805 25.9906 25.4805 24.7129C25.4805 23.4352 24.4447 22.3994 23.167 22.3994C21.8893 22.3994 20.8535 23.4352 20.8535 24.7129C20.8535 25.9906 21.8893 27.0264 23.167 27.0264Z" stroke="white" stroke-width="2" stroke-miterlimit="10" stroke-linecap="round" stroke-linejoin="round"/>
<path d="M11.6006 27.0264C12.8783 27.0264 13.9141 25.9906 13.9141 24.7129C13.9141 23.4352 12.8783 22.3994 11.6006 22.3994C10.3229 22.3994 9.28711 23.4352 9.28711 24.7129C9.28711 25.9906 10.3229 27.0264 11.6006 27.0264Z" stroke="white" stroke-width="2" stroke-miterlimit="10" stroke-linecap="round" stroke-linejoin="round"/>
<path d="M5.81641 5.04883H29.8419C30.6536 5.04883 31.2129 5.86314 30.9215 6.62081L26.3128 18.6034C25.9692 19.4969 25.1108 20.0864 24.1535 20.0864H10.6192C9.50998 20.0864 8.55685 19.2991 8.34737 18.2098L5.81641 5.04883Z" stroke="white" stroke-width="2" stroke-miterlimit="10" stroke-linecap="round" stroke-linejoin="round"/>
<path d="M5.80097 5.0517L5.36249 2.85969C5.14619 1.77835 4.19672 1 3.09396 1H1" stroke="white" stroke-width="2" stroke-miterlimit="10" stroke-linecap="round" stroke-linejoin="round"/>
<path d="M23.4297 8.51855H24.2973" stroke="white" stroke-width="2" stroke-miterlimit="10" stroke-linecap="round" stroke-linejoin="round"/>
<path d="M6.68359 8.51855H20.8259" stroke="white" stroke-width="2" stroke-miterlimit="10" stroke-linecap="round" stroke-linejoin="round"/>
</svg>
