<svg width="21" height="20" viewBox="0 0 21 20" fill="none" xmlns="http://www.w3.org/2000/svg">
<path d="M12.5002 5.41699H3.3335V6.25033H12.5002V5.41699Z" fill="#00852D"/>
<path d="M12.5002 7.91699H3.3335V8.75033H12.5002V7.91699Z" fill="#00852D"/>
<path d="M10.4168 10.417H3.3335V11.2503H10.4168V10.417Z" fill="#00852D"/>
<path d="M8.3335 12.917H3.3335V13.7503H8.3335V12.917Z" fill="#00852D"/>
<path d="M8.3335 15.417H3.3335V16.2503H8.3335V15.417Z" fill="#00852D"/>
<path d="M15.8333 7.3275V3.16083L12.6725 0H0V20H15.8333V12.6725L20.1725 8.33333L17.5 5.66083L15.8333 7.3275ZM15.4167 8.9225L16.9108 10.4167L11.9108 15.4167H10.4167V13.9225L15.4167 8.9225ZM12.9167 1.4225L14.4108 2.91667H12.9167V1.4225ZM15 19.1667H0.833333V0.833333H12.0833V3.75H15V8.16083L9.58333 13.5775V16.25H12.2558L15 13.5058V19.1667ZM17.5 9.8275L16.0058 8.33333L17.5 6.83917L18.9942 8.33333L17.5 9.8275Z" fill="#00852D"/>
</svg>
