<svg width="15" height="15" viewBox="0 0 15 15" fill="none" xmlns="http://www.w3.org/2000/svg">
<path d="M12.0779 5.91719C12.0779 5.91719 11.7386 10.1266 11.5417 11.8997C11.4479 12.7466 10.9248 13.2428 10.0679 13.2584C8.43731 13.2878 6.80481 13.2897 5.17481 13.2553C4.35044 13.2384 3.83606 12.7359 3.74419 11.9041C3.54606 10.1153 3.20856 5.91719 3.20856 5.91719M12.9425 3.89939H2.34375M10.9003 3.89938C10.4096 3.89938 9.98713 3.5525 9.89088 3.07188L9.739 2.31188C9.64525 1.96125 9.32775 1.71875 8.96588 1.71875H6.32025C5.95838 1.71875 5.64088 1.96125 5.54713 2.31188L5.39525 3.07188C5.299 3.5525 4.8765 3.89938 4.38588 3.89938" stroke="#8F959E" stroke-width="1.3" stroke-linecap="round" stroke-linejoin="round"/>
</svg>
