<svg width="21" height="16" viewBox="0 0 21 16" fill="none" xmlns="http://www.w3.org/2000/svg">
<path d="M20.7213 2.18607L19.8907 1.35547L12.1967 9.04946C11.2349 10.0112 9.61744 10.0112 8.6557 9.04946L0.961706 1.39919L0.131104 2.22979L5.85788 7.95657L0.131104 13.6833L0.961706 14.5139L6.68848 8.78716L7.82509 9.92378C8.52455 10.6232 9.44258 11.0167 10.4043 11.0167C11.3661 11.0167 12.2841 10.6232 12.9836 9.92378L14.1202 8.78716L19.847 14.5139L20.6776 13.6833L14.9508 7.95657L20.7213 2.18607Z" fill="white"/>
<path d="M19.1038 16H1.83607C0.830603 16 0 15.1694 0 14.1639V1.83606C0 0.8306 0.830603 0 1.83607 0H19.1038C20.1093 0 20.9399 0.8306 20.9399 1.83606V14.1639C20.9399 15.1694 20.1093 16 19.1038 16ZM1.79235 1.18033C1.44262 1.18033 1.18033 1.44262 1.18033 1.79235V14.1202C1.18033 14.47 1.44262 14.7322 1.79235 14.7322H19.0601C19.4098 14.7322 19.6721 14.47 19.6721 14.1202V1.79235C19.6721 1.44262 19.4098 1.18033 19.0601 1.18033H1.79235Z" fill="white"/>
</svg>
