<svg width="23" height="22" viewBox="0 0 23 22" fill="none" xmlns="http://www.w3.org/2000/svg">
<g clip-path="url(#clip0_271_10551)">
<rect x="0.5" width="22" height="22" rx="11" fill="#EA4335"/>
<path d="M4.1711 11.0091C4.02453 7.15012 7.40468 3.58394 11.2676 3.53767C13.2364 3.36974 15.1518 4.1343 16.6418 5.38127C16.0306 6.05328 15.4087 6.71753 14.7444 7.3394C13.4328 6.54249 11.8535 5.93519 10.3205 6.47455C7.84794 7.1786 6.35054 10.098 7.26555 12.5169C8.02331 15.0432 11.0961 16.4296 13.5043 15.3683C14.7512 14.9218 15.5734 13.7713 15.9341 12.535C14.505 12.5065 13.0756 12.5243 11.6464 12.4848C11.6429 11.6345 11.6393 10.7875 11.6429 9.9372C14.0262 9.93364 16.413 9.92652 18.7998 9.94787C18.9464 12.0312 18.639 14.2608 17.2846 15.9329C15.4301 18.3198 12.0036 19.0203 9.21624 18.0839C6.25801 17.1123 4.10671 14.132 4.1711 11.0091Z" fill="#FEFEFE"/>
</g>
<defs>
<clipPath id="clip0_271_10551">
<rect width="22" height="22" fill="white" transform="translate(0.5)"/>
</clipPath>
</defs>
</svg>
