<svg width="22" height="22" viewBox="0 0 22 22" fill="none" xmlns="http://www.w3.org/2000/svg">
<path fill-rule="evenodd" clip-rule="evenodd" d="M10.6689 2.60732C12.6787 2.41234 14.3748 3.9933 14.3748 5.96749V6.58345H7.62484V6.14166C7.62484 4.4216 9.03225 2.76008 10.6662 2.60758L10.6689 2.60732ZM6.12484 6.64673V6.14166C6.12484 3.73715 8.03507 1.34744 10.5255 1.1142C13.4284 0.833353 15.8748 3.12046 15.8748 5.96749V6.64674C17.2813 6.80541 18.3006 7.26413 18.9552 8.04235C19.7772 9.01964 19.8505 10.2997 19.7203 11.4768L19.7191 11.4873L19.719 11.4873L19.0323 16.9808C18.9305 17.9255 18.691 18.9752 17.8341 19.758C16.982 20.5364 15.6692 20.9168 13.7498 20.9168H8.2498C6.33045 20.9168 5.01758 20.5364 4.1655 19.758C3.30865 18.9752 3.0691 17.9256 2.96729 16.9809L2.28059 11.4873L2.27928 11.4768L2.27935 11.4768C2.1491 10.2997 2.22236 9.01964 3.04438 8.04235C3.69897 7.26411 4.71836 6.80539 6.12484 6.64673ZM4.45651 16.8013L3.76968 11.3066C3.65341 10.2498 3.7775 9.50104 4.19231 9.00789C4.60064 8.52242 5.46409 8.08345 7.33314 8.08345H14.6665C16.5355 8.08345 17.399 8.52242 17.8073 9.00789C18.2221 9.50105 18.3462 10.2498 18.2299 11.3066L17.5431 16.8013L17.543 16.8012L17.5416 16.8144C17.4505 17.6646 17.2629 18.2481 16.8224 18.6506C16.3751 19.0592 15.5155 19.4168 13.7498 19.4168H8.2498C6.48415 19.4168 5.62452 19.0592 5.17723 18.6506C4.73673 18.2481 4.54913 17.6646 4.45803 16.8144L4.45815 16.8144L4.45651 16.8013ZM13.2041 11.0004C13.2041 10.4481 13.6518 10.0004 14.2041 10.0004H14.2123C14.7646 10.0004 15.2123 10.4481 15.2123 11.0004C15.2123 11.5527 14.7646 12.0004 14.2123 12.0004H14.2041C13.6518 12.0004 13.2041 11.5527 13.2041 11.0004ZM7.7865 10.0004C7.23421 10.0004 6.7865 10.4481 6.7865 11.0004C6.7865 11.5527 7.23421 12.0004 7.7865 12.0004H7.79473C8.34701 12.0004 8.79473 11.5527 8.79473 11.0004C8.79473 10.4481 8.34701 10.0004 7.79473 10.0004H7.7865Z" fill="white"/>
</svg>
