<svg width="22" height="22" viewBox="0 0 22 22" fill="none" xmlns="http://www.w3.org/2000/svg">
<g clip-path="url(#clip0_271_11097)">
<path d="M11.0094 21.9994C9.30748 22.0006 7.62844 21.6094 6.10405 20.8566C4.57966 20.1038 3.2514 19.0099 2.2235 17.6606C1.1956 16.3113 0.496031 14.7434 0.179705 13.0799C-0.136621 11.4165 -0.0611007 9.70273 0.400339 8.07319C0.861778 6.44365 1.69658 4.94266 2.83923 3.68801C3.98188 2.43336 5.40128 1.4592 6.98605 0.841972C8.57081 0.224748 10.2778 -0.0187441 11.9731 0.130607C13.6683 0.279959 15.3058 0.818089 16.7568 1.70276L18.1514 0L18.5722 4.14152L14.4094 4.5601L15.7385 2.94079C13.9633 1.91434 11.8994 1.49325 9.86124 1.74168C7.82312 1.99011 5.92249 2.89443 4.4489 4.3169C2.97531 5.73936 2.00954 7.60198 1.69871 9.621C1.38787 11.64 1.74902 13.7048 2.72713 15.5007C3.70524 17.2967 5.24669 18.7254 7.11666 19.5691C8.98664 20.4129 11.0826 20.6255 13.0853 20.1746C15.088 19.7237 16.8877 18.6339 18.2101 17.0713C19.5325 15.5087 20.3052 13.559 20.4104 11.5191C20.4207 11.3162 20.5093 11.1251 20.6576 10.9854C20.8059 10.8457 21.0027 10.7683 21.2069 10.7692H21.245C21.4558 10.7802 21.6537 10.8739 21.7951 11.0297C21.9366 11.1856 22.0101 11.391 21.9995 11.6007C21.8578 14.4053 20.6382 17.0485 18.5927 18.9839C16.5473 20.9193 13.8324 21.9989 11.0094 21.9994Z" fill="#A96600"/>
<path d="M11.0093 21.6833C13.7505 21.6824 16.3866 20.6339 18.3728 18.7547C20.359 16.8754 21.5435 14.3089 21.6816 11.5856C21.6849 11.5233 21.6759 11.461 21.655 11.4022C21.6342 11.3434 21.6019 11.2892 21.5599 11.2428C21.518 11.1965 21.4674 11.1587 21.4108 11.1318C21.3542 11.1049 21.2929 11.0894 21.2303 11.0861C21.1677 11.0827 21.105 11.0917 21.0459 11.1125C20.9868 11.1332 20.9324 11.1654 20.8858 11.2071C20.8391 11.2488 20.8012 11.2992 20.7742 11.3554C20.7471 11.4117 20.7315 11.4727 20.7281 11.535C20.6327 13.4064 19.9934 15.2101 18.8879 16.7273C17.7825 18.2445 16.2582 19.4101 14.5001 20.0828C12.7419 20.7554 10.8253 20.9063 8.98267 20.517C7.14004 20.1277 5.45052 19.215 4.11897 17.8895C0.324227 14.1147 0.324227 7.96886 4.11897 4.19407C5.68231 2.63678 7.73251 1.656 9.93147 1.41347C12.1304 1.17094 14.3468 1.68114 16.2151 2.85993L15.1409 4.16878L18.2237 3.85896L17.9123 0.792335L16.8253 2.12015C14.7712 0.79309 12.3211 0.20837 9.88526 0.463908C7.44945 0.719446 5.17584 1.79973 3.4452 3.52384C-0.724572 7.67168 -0.724572 14.4119 3.4452 18.5598C4.43548 19.5524 5.614 20.3397 6.91244 20.8759C8.21088 21.412 9.6034 21.6865 11.0093 21.6833Z" fill="#A96600"/>
<path d="M9.34079 9.00233C9.34079 8.34222 10.3114 8.22967 11.1536 8.22967C11.9475 8.22967 13.0326 8.59956 13.939 9.06683L14.117 7.24709C13.6631 6.98911 12.6111 6.68308 11.5426 6.61922L11.8013 4.7666H10.0692L10.3286 6.61922C8.09431 6.82788 7.36523 8.11649 7.36523 9.19581C7.36523 11.9147 12.4649 11.3387 12.4649 13.013C12.4649 13.6415 11.8662 13.8666 10.8123 13.8666C9.38783 13.8666 8.31869 13.3677 7.76886 12.8517L7.49363 14.8972C8.01168 15.2032 9.06365 15.477 10.3273 15.5421L10.068 17.3296H11.8001L11.5414 15.5257C14.164 15.3 14.6337 13.9146 14.6337 12.9965C14.635 9.75982 9.34079 10.5647 9.34079 9.00233Z" fill="#A96600"/>
</g>
<defs>
<clipPath id="clip0_271_11097">
<rect width="22" height="22" fill="white"/>
</clipPath>
</defs>
</svg>
