<svg width="22" height="22" viewBox="0 0 22 22" fill="none" xmlns="http://www.w3.org/2000/svg">
<path d="M19.0943 7.34122L13.0901 2.53788C11.9168 1.60288 10.0835 1.59371 8.91929 2.52871L2.91513 7.34122C2.05346 8.02872 1.53096 9.40371 1.7143 10.4854L2.8693 17.397C3.13513 18.9462 4.5743 20.1654 6.1418 20.1654H15.8585C17.4076 20.1654 18.8743 18.9187 19.1401 17.3879L20.2951 10.4762C20.4601 9.40372 19.9376 8.02872 19.0943 7.34122ZM11.6876 16.4987C11.6876 16.8745 11.376 17.1862 11.0001 17.1862C10.6243 17.1862 10.3126 16.8745 10.3126 16.4987V13.7487C10.3126 13.3729 10.6243 13.0612 11.0001 13.0612C11.376 13.0612 11.6876 13.3729 11.6876 13.7487V16.4987Z" fill="#AAAAAA"/>
</svg>
