<svg width="28" height="22" viewBox="0 0 28 22" fill="none" xmlns="http://www.w3.org/2000/svg">
<path d="M25.2641 21.1594H2.42811C1.09843 21.1594 0 20.0609 0 18.7312V2.42812C0 1.09844 1.09843 0 2.42811 0H25.2641C26.5937 0 27.6922 1.09844 27.6922 2.42812V18.7312C27.6922 20.0609 26.5937 21.1594 25.2641 21.1594ZM2.37032 1.56094C1.90782 1.56094 1.56093 1.90781 1.56093 2.37031V18.6734C1.56093 19.1359 1.90782 19.4828 2.37032 19.4828H25.2062C25.6687 19.4828 26.0156 19.1359 26.0156 18.6734V2.37031C26.0156 1.90781 25.6687 1.56094 25.2062 1.56094H2.37032Z" fill="#08469B"/>
<path d="M17.9219 9.6543C16.1297 9.6543 14.7422 8.20898 14.7422 6.47461C14.7422 4.74023 16.1875 3.29492 17.9219 3.29492C19.6562 3.29492 21.1016 4.74023 21.1016 6.47461C21.1016 8.20898 19.6562 9.6543 17.9219 9.6543ZM17.9219 4.74023C16.9969 4.74023 16.2453 5.49179 16.2453 6.41679C16.2453 7.34179 16.9969 8.09336 17.9219 8.09336C18.8469 8.09336 19.5984 7.34179 19.5984 6.41679C19.5984 5.49179 18.8469 4.74023 17.9219 4.74023Z" fill="#08469B"/>
<path d="M22.257 20.8707L8.90234 8.32539L1.27109 15.3785L0.230469 14.2801L8.90234 6.24414L23.2977 19.7723L22.257 20.8707Z" fill="#08469B"/>
<path d="M26.4195 16.7082L21.968 13.1238L18.268 16.1879L17.2852 14.9738L21.968 11.1582L27.3445 15.5519L26.4195 16.7082Z" fill="#08469B"/>
</svg>
