<svg width="16" height="16" viewBox="0 0 16 16" fill="none" xmlns="http://www.w3.org/2000/svg">
<path d="M1.88304 5.88373L3.99853 3.76824V13.2004C3.99853 13.4213 4.17762 13.6004 4.39853 13.6004C4.61945 13.6004 4.79853 13.4213 4.79853 13.2004V3.76463L6.91765 5.88375C7.07387 6.03996 7.32713 6.03996 7.48334 5.88375C7.63955 5.72753 7.63955 5.47427 7.48334 5.31806L4.69129 2.526L4.68329 2.51779C4.65306 2.48755 4.61919 2.46317 4.58309 2.44464C4.52577 2.41512 4.46282 2.40037 4.39987 2.40039H4.39853C4.27548 2.40039 4.16539 2.45597 4.09201 2.54338L1.31736 5.31805C1.16114 5.47425 1.16114 5.72752 1.31736 5.88373C1.47357 6.03994 1.72683 6.03994 1.88304 5.88373ZM14.1176 10.117L12.0022 12.2326V2.80039C12.0022 2.57948 11.8231 2.40039 11.6022 2.40039C11.3812 2.40039 11.2022 2.57948 11.2022 2.80039V12.2362L9.08308 10.117C8.92684 9.96079 8.67356 9.96079 8.51732 10.117C8.36116 10.2733 8.36116 10.5266 8.51732 10.6827L11.3094 13.4748L11.3174 13.483C11.3476 13.5132 11.3815 13.5376 11.4176 13.5562C11.4749 13.5857 11.5379 13.6004 11.6008 13.6004H11.6022C11.7252 13.6004 11.8353 13.5448 11.9087 13.4574L14.6833 10.6827C14.8396 10.5266 14.8396 10.2733 14.6833 10.117C14.5272 9.96087 14.2739 9.96087 14.1176 10.117Z" fill="black"/>
</svg>
