<svg width="16" height="16" viewBox="0 0 16 16" fill="none" xmlns="http://www.w3.org/2000/svg">
<path d="M15.7545 0.252715C15.5993 0.0984277 15.389 0.0117659 15.1697 0.0117659C14.9505 0.0117659 14.7402 0.0984277 14.585 0.252715L7.99862 6.83283L1.41497 0.241729C1.25953 0.0869526 1.0487 -1.63084e-09 0.828873 0C0.609042 1.63084e-09 0.398215 0.0869526 0.242771 0.241729C0.0873273 0.396506 1.63787e-09 0.606429 0 0.825316C-1.63787e-09 1.0442 0.0873273 1.25413 0.242771 1.4089L6.82917 8L0.242771 14.5911C0.087693 14.7459 0.000715656 14.9557 0.000974283 15.1743C0.00123291 15.3929 0.0887056 15.6025 0.244149 15.7569C0.399593 15.9113 0.610276 15.9979 0.829848 15.9977C1.04942 15.9974 1.2599 15.9103 1.41497 15.7555L7.99862 9.16717L14.585 15.7583C14.7405 15.913 14.9513 16 15.1711 16C15.391 16 15.6018 15.913 15.7572 15.7583C15.9127 15.6035 16 15.3936 16 15.1747C16 14.9558 15.9127 14.7459 15.7572 14.5911L9.16807 8L15.7572 1.4089C15.9093 1.25441 15.9943 1.04657 15.9937 0.830246C15.9932 0.613925 15.9073 0.406484 15.7545 0.252715Z" fill="black"/>
</svg>
