<svg width="14" height="14" viewBox="0 0 14 14" fill="none" xmlns="http://www.w3.org/2000/svg">
<path d="M6.15263 8.05795L5.95847 7.75883L5.24703 6.63815L7.32976 3.32889V0H6.78939L3.97485 2.80103H3.99454V13.7013H7.32976V9.91358L6.15263 8.05795Z" fill="white"/>
<path d="M13.7243 0H10.2255L6.04919 6.6368L6.53186 7.39745H6.53661L10.1047 13.0246H14L9.39799 6.49536L13.7243 0Z" fill="white"/>
<path d="M6.53943 13.321C6.51702 11.8267 6.50548 10.7385 6.50548 9.10081L5.01268 7.77305C5.01268 7.07871 5.08532 6.17932 5.10772 5.36453C5.12265 4.63297 6.57744 3.89735 6.60799 3.15767C6.66841 1.69388 6.72883 0.64155 6.78992 0L2.78195 1.27904C1.29051 1.74667 0.363188 2.02616 0 2.11617L0.158852 2.60275L1.98701 2.31987C2.80436 2.19941 3.42144 2.13106 3.83758 2.11617L3.92854 4.91179C3.93601 5.41731 3.94348 5.94585 3.95095 6.49604V10.9896C3.94348 11.7442 3.93601 12.4344 3.92854 13.0604C3.92108 13.5558 3.91361 13.3176 3.90478 13.7006H6.55911L6.53943 13.3203V13.321Z" fill="white"/>
</svg>
