<svg width="17" height="22" viewBox="0 0 17 22" fill="none" xmlns="http://www.w3.org/2000/svg">
<path d="M1.52211 21.9926H14.7162C15.5478 21.9926 16.2308 21.3169 16.2308 20.4779V3.39318C16.2308 2.56159 15.5552 1.8785 14.7162 1.8785H12.7708V0.490044C12.7708 0.222747 12.5481 0 12.2808 0C12.0135 0 11.7908 0.222747 11.7908 0.490044V1.8785H8.60546V0.490044C8.60546 0.222747 8.38272 0 8.11542 0C7.84813 0 7.62538 0.222747 7.62538 0.490044V1.8785H4.44009V0.490044C4.44009 0.222747 4.21735 0 3.95005 0C3.68275 0 3.46001 0.222747 3.46001 0.490044V1.8785H1.51468C0.683089 1.8785 0 2.55417 0 3.39318V20.4779C0 21.3095 0.675664 22 1.51468 22L1.52211 21.9926ZM0.987511 3.38576C0.987511 3.08876 1.22511 2.85116 1.52211 2.85116H3.46743V4.25447C3.46743 4.52177 3.69018 4.74452 3.95748 4.74452C4.22477 4.74452 4.44752 4.52177 4.44752 4.25447V2.85116H7.6328V4.25447C7.6328 4.52177 7.85555 4.74452 8.12285 4.74452C8.39015 4.74452 8.61289 4.52177 8.61289 4.25447V2.85116H11.7982V4.25447C11.7982 4.52177 12.0209 4.74452 12.2882 4.74452C12.5555 4.74452 12.7783 4.52177 12.7783 4.25447V2.85116H14.7236C15.0206 2.85116 15.2582 3.08876 15.2582 3.38576V20.4705C15.2582 20.7675 15.0206 21.0051 14.7236 21.0051H1.52953C1.23253 21.0051 0.994938 20.7675 0.994938 20.4705V3.39318L0.987511 3.38576Z" fill="black"/>
<path d="M3.28927 8.61247C3.38579 8.709 3.51202 8.75354 3.63824 8.75354C3.76446 8.75354 3.88326 8.709 3.98721 8.61247L5.71721 6.88247C5.90283 6.69685 5.90283 6.37757 5.71721 6.19195C5.53159 6.00633 5.21232 6.00633 5.02669 6.19195L3.64566 7.57298L3.14077 7.06809C2.95515 6.88247 2.63587 6.88247 2.45025 7.06809C2.26463 7.25371 2.26463 7.57298 2.45025 7.75861L3.29669 8.60505L3.28927 8.61247Z" fill="black"/>
<path d="M6.95001 7.88536H13.4468C13.7141 7.88536 13.9368 7.66261 13.9368 7.39532C13.9368 7.12802 13.7141 6.90527 13.4468 6.90527H6.95001C6.68271 6.90527 6.45996 7.12802 6.45996 7.39532C6.45996 7.66261 6.68271 7.88536 6.95001 7.88536Z" fill="black"/>
<path d="M3.28927 13.1496C3.38579 13.2461 3.51202 13.2907 3.63824 13.2907C3.76446 13.2907 3.88326 13.2461 3.98721 13.1496L5.71721 11.4196C5.90283 11.234 5.90283 10.9147 5.71721 10.7291C5.53159 10.5434 5.21232 10.5434 5.02669 10.7291L3.64566 12.1027L3.14077 11.5978C2.95515 11.4122 2.63587 11.4122 2.45025 11.5978C2.26463 11.7834 2.26463 12.1027 2.45025 12.2883L3.29669 13.1422L3.28927 13.1496Z" fill="black"/>
<path d="M6.95001 12.4215H13.4468C13.7141 12.4215 13.9368 12.1987 13.9368 11.9314C13.9368 11.6642 13.7141 11.4414 13.4468 11.4414H6.95001C6.68271 11.4414 6.45996 11.6642 6.45996 11.9314C6.45996 12.1987 6.68271 12.4215 6.95001 12.4215Z" fill="black"/>
<path d="M3.28927 17.6789C3.38579 17.7754 3.51202 17.82 3.63824 17.82C3.76446 17.82 3.88326 17.7754 3.98721 17.6789L5.71721 15.9489C5.90283 15.7633 5.90283 15.444 5.71721 15.2584C5.53159 15.0727 5.21232 15.0727 5.02669 15.2584L3.64566 16.6394L3.14077 16.1345C2.95515 15.9489 2.63587 15.9489 2.45025 16.1345C2.26463 16.3201 2.26463 16.6394 2.45025 16.825L3.29669 17.6715L3.28927 17.6789Z" fill="black"/>
<path d="M6.95001 16.9586H13.4468C13.7141 16.9586 13.9368 16.7359 13.9368 16.4686C13.9368 16.2013 13.7141 15.9785 13.4468 15.9785H6.95001C6.68271 15.9785 6.45996 16.2013 6.45996 16.4686C6.45996 16.7359 6.68271 16.9586 6.95001 16.9586Z" fill="black"/>
</svg>
