<svg width="90" height="39" viewBox="0 0 90 39" fill="none" xmlns="http://www.w3.org/2000/svg">
<path d="M86.2511 29.2875C83.7658 31.7232 80.6613 32.9411 76.9409 32.9411C73.2204 32.9411 70.1243 31.7232 67.6524 29.2875C65.152 26.8517 63.9034 23.7936 63.9034 20.1132C63.9034 16.4329 65.1537 13.353 67.6524 10.9173C70.1243 8.48155 73.2204 7.26367 76.9409 7.26367C80.6613 7.26367 83.7658 8.48155 86.2511 10.9173C88.7516 13.353 90.0001 16.4178 90.0001 20.1132C90.0001 23.8087 88.7499 26.8534 86.2511 29.2875ZM81.1161 15.844C79.9934 14.6261 78.6022 14.0172 76.9409 14.0172C75.2795 14.0172 73.9085 14.6261 72.7858 15.844C71.6917 17.02 71.1446 18.442 71.1446 20.1132C71.1446 21.7845 71.6917 23.1931 72.7858 24.3825C73.9068 25.5853 75.2929 26.1876 76.9409 26.1876C78.5888 26.1876 79.9951 25.5853 81.1161 24.3825C82.2102 23.1931 82.7573 21.7694 82.7573 20.1132C82.7573 18.4571 82.2102 17.02 81.1161 15.844Z" fill="#08469B"/>
<path d="M59.8539 16.3108C59.8253 15.4476 59.7481 14.6965 59.6189 14.0591C59.3202 12.4598 58.6523 11.0646 57.6169 9.87515C56.0965 8.10522 53.9032 7.22025 51.0336 7.22025C49.6844 7.22025 48.4979 7.4461 47.4759 7.89945C46.2828 8.42307 45.3884 9.21603 44.7909 10.2783H44.7053V0H37.4625V32.1967H44.7053V18.7951C44.7053 17.2945 44.989 16.1552 45.5578 15.3757C46.2257 14.4689 47.2914 14.0173 48.753 14.0173C50.2147 14.0173 51.245 14.5342 51.8844 15.568C52.3962 16.3894 52.6513 17.5571 52.6513 19.0728V32.1984H59.8941V17.5019C59.8807 17.0486 59.8656 16.6521 59.8522 16.3125L59.8539 16.3108Z" fill="#08469B"/>
<path d="M15.209 19.9193L14.7291 19.1798L12.9704 16.4095L18.1189 8.22901V0H16.7831L9.82556 6.92415H9.87423V33.8696H18.1189V24.5064L15.209 19.9193Z" fill="#E45625"/>
<path d="M33.9267 0H25.2776L14.9537 16.4062L16.1469 18.2865H16.1586L24.9789 32.1967H34.608L23.232 16.0565L33.9267 0Z" fill="#08469B"/>
<path d="M16.1655 32.9294C16.1101 29.2357 16.0816 26.5456 16.0816 22.4972L12.3913 19.215C12.3913 17.4986 12.5709 15.2753 12.6263 13.2611C12.6632 11.4527 16.2594 9.63425 16.335 7.80577C16.4843 4.18728 16.6337 1.58591 16.7847 0L6.87699 3.16179C3.19013 4.31776 0.897802 5.00867 0 5.23117L0.392683 6.43399L4.9119 5.73471C6.93237 5.43694 8.45779 5.26797 9.48649 5.23117L9.71136 12.1419C9.72982 13.3916 9.74828 14.6981 9.76674 16.0582V27.1663C9.74828 29.0316 9.72982 30.7379 9.71136 32.2854C9.6929 33.5099 9.67444 32.9211 9.65263 33.8679H16.2141L16.1655 32.9278V32.9294Z" fill="#E45625"/>
<path d="M0 35.543V38.872H9.54187C9.58215 38.0724 9.61906 36.9649 9.65095 35.543H0Z" fill="#E45625"/>
<path d="M89.9999 35.543H16.214L16.2492 37.4618C16.266 38.0356 16.2845 38.504 16.3063 38.872H89.9999V35.543Z" fill="#E45625"/>
<path d="M16.2142 35.543H9.65266C9.62077 36.9666 9.58385 38.0741 9.54358 38.872H16.3065C16.2863 38.504 16.2662 38.0356 16.2494 37.4618L16.2142 35.543Z" fill="#E45625"/>
</svg>
