<svg width="92" height="40" viewBox="0 0 92 40" fill="none" xmlns="http://www.w3.org/2000/svg">
<path d="M88.1677 29.938C85.6271 32.4279 82.4536 33.6728 78.6505 33.6728C74.8474 33.6728 71.6825 32.4279 69.1556 29.938C66.5996 27.4481 65.3234 24.3221 65.3234 20.5599C65.3234 16.7978 66.6014 13.6495 69.1556 11.1596C71.6825 8.66974 74.8474 7.4248 78.6505 7.4248C82.4536 7.4248 85.6271 8.66974 88.1677 11.1596C90.7237 13.6495 92 16.7824 92 20.5599C92 24.3375 90.722 27.4498 88.1677 29.938ZM82.9185 16.1958C81.7709 14.9509 80.3488 14.3284 78.6505 14.3284C76.9522 14.3284 75.5507 14.9509 74.4031 16.1958C73.2847 17.398 72.7254 18.8516 72.7254 20.5599C72.7254 22.2683 73.2847 23.7082 74.4031 24.924C75.549 26.1536 76.966 26.7692 78.6505 26.7692C80.3351 26.7692 81.7726 26.1536 82.9185 24.924C84.0369 23.7082 84.5962 22.2529 84.5962 20.5599C84.5962 18.8669 84.0369 17.398 82.9185 16.1958Z" fill="white"/>
<path d="M61.1841 16.6733C61.1549 15.7909 61.076 15.023 60.9439 14.3715C60.6386 12.7367 59.9558 11.3105 58.8974 10.0946C57.3433 8.28534 55.1012 7.3807 52.1678 7.3807C50.7886 7.3807 49.5758 7.61156 48.5311 8.075C47.3114 8.61025 46.3971 9.42083 45.7864 10.5067H45.6989V0H38.2952V32.9122H45.6989V19.2127C45.6989 17.6788 45.9889 16.5142 46.5704 15.7173C47.2531 14.7905 48.3424 14.3288 49.8365 14.3288C51.3307 14.3288 52.384 14.8572 53.0375 15.914C53.5607 16.7536 53.8215 17.9473 53.8215 19.4966V32.9139H61.2253V17.8909C61.2115 17.4274 61.1961 17.0221 61.1824 16.675L61.1841 16.6733Z" fill="white"/>
<path d="M15.547 20.3619L15.0564 19.6061L13.2587 16.7742L18.5216 8.41188V0H17.1561L10.0439 7.07802H10.0937V34.6223H18.5216V25.051L15.547 20.3619Z" fill="#E45625"/>
<path d="M34.6806 0H25.8393L15.286 16.7708L16.5057 18.6929H16.5177L25.534 32.9122H35.3771L23.7482 16.4133L34.6806 0Z" fill="white"/>
<path d="M16.5247 33.6612C16.4681 29.8854 16.4389 27.1355 16.4389 22.9972L12.6667 19.642C12.6667 17.8874 12.8503 15.6147 12.9069 13.5558C12.9446 11.7072 16.6208 9.84835 16.698 7.97923C16.8506 4.28033 17.0033 1.62116 17.1577 0L7.02981 3.23205C3.26102 4.41372 0.917753 5.11998 0 5.34742L0.40141 6.57697L5.02105 5.86215C7.08642 5.55776 8.64574 5.38504 9.6973 5.34742L9.92717 12.4118C9.94604 13.6892 9.96491 15.0248 9.98378 16.4151V27.77C9.96491 29.6767 9.94604 31.421 9.92717 33.0028C9.9083 34.2546 9.88943 33.6527 9.86713 34.6206H16.5744L16.5247 33.6595V33.6612Z" fill="#E45625"/>
<path d="M0 36.332V39.7351H9.75391C9.79508 38.9177 9.83282 37.7856 9.86541 36.332H0Z" fill="#E45625"/>
<path d="M92 36.332H16.5745L16.6105 38.2935C16.6276 38.88 16.6465 39.3589 16.6688 39.7351H92V36.332Z" fill="#E45625"/>
<path d="M16.5744 36.332H9.86712C9.83453 37.7873 9.79679 38.9194 9.75562 39.7351H16.6688C16.6482 39.3589 16.6276 38.88 16.6105 38.2935L16.5744 36.332Z" fill="#E45625"/>
</svg>
