<svg width="715" height="348" viewBox="0 0 715 348" fill="none" xmlns="http://www.w3.org/2000/svg">
<g clip-path="url(#clip0_287_45)">
<path d="M303.413 11.8635H358.489V109.699C371.18 93.4062 387.826 78.5372 415.383 78.5372C457.412 78.5372 481.332 105.705 481.332 150.668V276.423H426.256V168.068C426.256 141.968 414.316 128.562 392.926 128.562C371.536 128.562 358.489 141.968 358.489 168.068V276.423H303.413V11.8635Z" fill="white"/>
<path d="M503.908 180.367V179.655C503.908 123.856 548.823 78.5374 609.355 78.5374C669.888 78.5374 714.091 122.749 714.091 178.943V179.655C714.091 235.454 669.176 280.773 608.644 280.773C548.111 280.773 503.908 236.561 503.908 180.367ZM659.726 180.367V179.655C659.726 151.024 639.088 126.031 608.644 126.031C578.2 126.031 558.273 149.956 558.273 178.943V179.655C558.273 208.286 578.911 233.279 609.355 233.279C639.799 233.279 659.726 209.354 659.726 180.367Z" fill="white"/>
<path d="M104.498 195.552L135.1 163.797L217.101 276.423H287.004L174.401 124.094L282.101 11.8635H211.803L104.498 127.494" fill="white"/>
<path d="M39.6563 281.643C35.3072 281.643 31.7488 278.084 31.7488 273.734V111.083H7.90754C3.55839 111.083 0 107.524 0 103.135V39.6641C0 35.3141 3.55839 31.755 7.90754 31.755H23.7622C37.9957 31.755 49.8571 21.1173 51.399 6.99955C51.8339 3.04501 55.1946 0.0395508 59.2275 0.0395508H103.114C107.464 0.0395508 111.022 3.59864 111.022 7.94864V273.773C111.022 278.123 107.464 281.682 103.114 281.682H39.6563V281.643Z" fill="white"/>
<path d="M59.2273 3.95459C57.2505 3.95459 55.5108 5.41777 55.3131 7.39504C53.613 23.2923 40.1306 35.7096 23.762 35.7096H7.90738C5.73281 35.7096 3.95361 37.4891 3.95361 39.6641V103.135C3.95361 105.31 5.73281 107.089 7.90738 107.089H31.7091C33.8837 107.089 35.6629 108.869 35.6629 111.044V273.694C35.6629 275.869 37.4421 277.649 39.6166 277.649H103.075C105.249 277.649 107.028 275.869 107.028 273.694V7.90914C107.028 5.73414 105.249 3.95459 103.075 3.95459H59.1878H59.2273Z" fill="#CC1310"/>
<path d="M713.023 316.364H5.29817C4.19112 316.364 3.32129 315.494 3.32129 314.386C3.32129 313.279 4.19112 312.409 5.29817 312.409H713.023C714.13 312.409 715 313.279 715 314.386C715 315.494 714.13 316.364 713.023 316.364Z" fill="white"/>
</g>
<defs>
<clipPath id="clip0_287_45">
<rect width="715" height="348" fill="white"/>
</clipPath>
</defs>
</svg>
