<svg width="26" height="26" viewBox="0 0 26 26" fill="none" xmlns="http://www.w3.org/2000/svg">
<circle cx="13" cy="13" r="13" fill="#1D1E20"/>
<path fill-rule="evenodd" clip-rule="evenodd" d="M7.17969 11.7939C7.19049 8.61341 9.77751 6.04391 12.958 6.05472C16.1384 6.06553 18.7079 8.65254 18.6971 11.833V11.8982C18.658 13.9656 17.5036 15.8765 16.0884 17.37C15.279 18.2104 14.3752 18.9545 13.3949 19.5873C13.1328 19.8141 12.744 19.8141 12.4819 19.5873C11.0205 18.6361 9.73789 17.4352 8.69273 16.0395C7.7612 14.8224 7.23231 13.3452 7.17969 11.8134V11.7939Z" stroke="#FEFEFE" stroke-width="1.2" stroke-linecap="round" stroke-linejoin="round"/>
<path d="M12.9375 13.7499C13.9568 13.7499 14.7831 12.9236 14.7831 11.9042C14.7831 10.8849 13.9568 10.0586 12.9375 10.0586C11.9181 10.0586 11.0918 10.8849 11.0918 11.9042C11.0918 12.9236 11.9181 13.7499 12.9375 13.7499Z" stroke="#FEFEFE" stroke-width="1.2" stroke-linecap="round" stroke-linejoin="round"/>
</svg>
