<svg width="27" height="27" viewBox="0 0 27 27" fill="none" xmlns="http://www.w3.org/2000/svg">
<path d="M12.9919 10.916L8.52832 15.6838L12.5861 13.4521L14.6657 15.6838L19.1292 10.916L15.1222 13.1478L12.9919 10.916Z" fill="black"/>
<path d="M13.8057 0C6.58843 0 0.737305 5.85012 0.737305 13.0674C0.737305 20.2848 6.58843 26.1359 13.8057 26.1359C21.0225 26.1359 26.8737 20.2848 26.8737 13.0674C26.8737 5.85012 21.0225 0 13.8057 0ZM13.8542 20.6555C13.04 20.6555 12.2539 20.544 11.5118 20.3373L8.73129 21.8729V18.9719C6.87549 17.5773 5.68794 15.4416 5.68794 13.0473C5.68794 8.84534 9.34409 5.43904 13.8541 5.43904C18.3642 5.43904 22.0204 8.84534 22.0204 13.0473C22.0204 17.2493 18.3643 20.6555 13.8542 20.6555Z" fill="black"/>
</svg>
