<svg width="50" height="50" viewBox="0 0 50 50" fill="none" xmlns="http://www.w3.org/2000/svg">
<path d="M16.7989 37.9912H32.3918C33.3746 37.9912 34.1819 37.1927 34.1819 36.2011V16.0101C34.1819 15.0273 33.3834 14.22 32.3918 14.22H30.0928V12.5791C30.0928 12.2632 29.8296 12 29.5137 12C29.1978 12 28.9345 12.2632 28.9345 12.5791V14.22H25.1701V12.5791C25.1701 12.2632 24.9069 12 24.591 12C24.2751 12 24.0118 12.2632 24.0118 12.5791V14.22H20.2474V12.5791C20.2474 12.2632 19.9841 12 19.6682 12C19.3523 12 19.0891 12.2632 19.0891 12.5791V14.22H16.7901C15.8073 14.22 15 15.0186 15 16.0101V36.2011C15 37.1839 15.7985 38 16.7901 38L16.7989 37.9912ZM16.1671 16.0013C16.1671 15.6504 16.4479 15.3696 16.7989 15.3696H19.0979V17.028C19.0979 17.3439 19.3611 17.6072 19.677 17.6072C19.9929 17.6072 20.2562 17.3439 20.2562 17.028V15.3696H24.0206V17.028C24.0206 17.3439 24.2838 17.6072 24.5997 17.6072C24.9156 17.6072 25.1789 17.3439 25.1789 17.028V15.3696H28.9433V17.028C28.9433 17.3439 29.2065 17.6072 29.5224 17.6072C29.8383 17.6072 30.1016 17.3439 30.1016 17.028V15.3696H32.4006C32.7516 15.3696 33.0324 15.6504 33.0324 16.0013V36.1924C33.0324 36.5434 32.7516 36.8242 32.4006 36.8242H16.8076C16.4566 36.8242 16.1758 36.5434 16.1758 36.1924V16.0101L16.1671 16.0013Z" fill="#3D93F8"/>
<path d="M18.8875 22.1794C19.0016 22.2935 19.1508 22.3462 19.3 22.3462C19.4491 22.3462 19.5895 22.2935 19.7124 22.1794L21.7569 20.1349C21.9763 19.9155 21.9763 19.5382 21.7569 19.3188C21.5376 19.0995 21.1602 19.0995 20.9409 19.3188L19.3087 20.951L18.712 20.3543C18.4927 20.1349 18.1153 20.1349 17.896 20.3543C17.6766 20.5736 17.6766 20.951 17.896 21.1703L18.8963 22.1707L18.8875 22.1794Z" fill="#3D93F8"/>
<path d="M23.2139 21.3184H30.8919C31.2078 21.3184 31.4711 21.0552 31.4711 20.7393C31.4711 20.4234 31.2078 20.1602 30.8919 20.1602H23.2139C22.898 20.1602 22.6348 20.4234 22.6348 20.7393C22.6348 21.0552 22.898 21.3184 23.2139 21.3184Z" fill="#3D93F8"/>
<path d="M18.8875 27.5408C19.0016 27.6548 19.1508 27.7075 19.3 27.7075C19.4491 27.7075 19.5895 27.6548 19.7124 27.5408L21.7569 25.4962C21.9763 25.2768 21.9763 24.8995 21.7569 24.6802C21.5376 24.4608 21.1602 24.4608 20.9409 24.6802L19.3087 26.3035L18.712 25.7068C18.4927 25.4874 18.1153 25.4874 17.896 25.7068C17.6766 25.9262 17.6766 26.3035 17.896 26.5229L18.8963 27.532L18.8875 27.5408Z" fill="#3D93F8"/>
<path d="M23.2139 26.6798H30.8919C31.2078 26.6798 31.4711 26.4165 31.4711 26.1006C31.4711 25.7847 31.2078 25.5215 30.8919 25.5215H23.2139C22.898 25.5215 22.6348 25.7847 22.6348 26.1006C22.6348 26.4165 22.898 26.6798 23.2139 26.6798Z" fill="#3D93F8"/>
<path d="M18.8875 32.8923C19.0016 33.0064 19.1508 33.0591 19.3 33.0591C19.4491 33.0591 19.5895 33.0064 19.7124 32.8923L21.7569 30.8478C21.9763 30.6284 21.9763 30.2511 21.7569 30.0317C21.5376 29.8123 21.1602 29.8123 20.9409 30.0317L19.3087 31.6638L18.712 31.0672C18.4927 30.8478 18.1153 30.8478 17.896 31.0672C17.6766 31.2865 17.6766 31.6638 17.896 31.8832L18.8963 32.8836L18.8875 32.8923Z" fill="#3D93F8"/>
<path d="M23.2139 32.0411H30.8919C31.2078 32.0411 31.4711 31.7779 31.4711 31.462C31.4711 31.1461 31.2078 30.8828 30.8919 30.8828H23.2139C22.898 30.8828 22.6348 31.1461 22.6348 31.462C22.6348 31.7779 22.898 32.0411 23.2139 32.0411Z" fill="#3D93F8"/>
<rect width="50" height="50" rx="10" fill="#3D93F8" fill-opacity="0.1"/>
</svg>
