<svg width="22" height="22" viewBox="0 0 22 22" fill="none" xmlns="http://www.w3.org/2000/svg">
<path d="M20.4738 16.7544L17.9644 13.6744L17.875 8.25C17.8779 8.21339 17.8779 8.17661 17.875 8.14C17.0844 3.83625 14.5819 1.375 11 1.375C7.21876 1.375 4.18001 4.125 3.43751 8.12625C3.43379 8.16742 3.43379 8.20883 3.43751 8.25L3.34813 13.75L1.47126 16.83C1.41092 16.9345 1.37915 17.0531 1.37915 17.1737C1.37915 17.2944 1.41092 17.413 1.47126 17.5175C1.52949 17.624 1.61486 17.7131 1.71871 17.7759C1.82256 17.8387 1.94117 17.8729 2.06251 17.875H8.25001C8.25001 18.6043 8.53974 19.3038 9.05546 19.8195C9.57119 20.3353 10.2707 20.625 11 20.625C11.7294 20.625 12.4288 20.3353 12.9446 19.8195C13.4603 19.3038 13.75 18.6043 13.75 17.875H19.9375C20.0671 17.8746 20.1939 17.8377 20.3034 17.7683C20.4129 17.699 20.5005 17.6001 20.5563 17.4831C20.6127 17.3663 20.6349 17.2358 20.6203 17.1068C20.6057 16.9779 20.5549 16.8557 20.4738 16.7544ZM11 19.25C10.6353 19.25 10.2856 19.1051 10.0277 18.8473C9.76987 18.5894 9.62501 18.2397 9.62501 17.875H12.375C12.375 18.2397 12.2301 18.5894 11.9723 18.8473C11.7144 19.1051 11.3647 19.25 11 19.25ZM3.27938 16.5L4.65438 14.2725C4.71617 14.1684 4.74938 14.0498 4.75063 13.9288L4.81251 8.31875C5.43813 4.98438 7.92001 2.75 11 2.75C14.8706 2.75 16.1081 6.1875 16.5 8.31875L16.5963 13.9288C16.5972 14.0838 16.6505 14.234 16.7475 14.355L18.4938 16.5H3.27938Z" fill="white"/>
</svg>
