<svg width="20" height="24" viewBox="0 0 20 24" fill="none" xmlns="http://www.w3.org/2000/svg">
<path fill-rule="evenodd" clip-rule="evenodd" d="M18.2422 12.1865L19.5619 14.4481C20.0407 15.2782 20.1341 16.2647 19.8071 17.1669C19.4801 18.0571 18.7911 18.7549 17.8918 19.0677C16.6305 19.5007 15.3341 19.8376 14.0261 20.0541L14.026 20.0541C13.8976 20.0782 13.7691 20.1022 13.6407 20.1143C13.4305 20.1504 13.2202 20.1744 13.01 20.1985C12.7531 20.2346 12.4845 20.2586 12.2159 20.2827C11.4918 20.3549 10.756 20.391 10.0202 20.391C9.27278 20.391 8.52532 20.3549 7.78955 20.2827C7.47422 20.2586 7.17057 20.2225 6.86692 20.1744C6.69174 20.1504 6.51656 20.1263 6.35305 20.1022C6.28882 20.0902 6.22459 20.0812 6.16037 20.0722C6.09613 20.0631 6.03189 20.0541 5.96765 20.0421C4.67129 19.8135 3.39829 19.5007 2.13697 19.0677C1.20266 18.7549 0.490248 18.0571 0.174918 17.1789C-0.140412 16.3128 -0.0236228 15.3143 0.47857 14.4361L1.79828 12.1744C2.07858 11.6812 2.33551 10.7308 2.33551 10.1534V7.91578C2.33551 3.54887 5.78079 0.0120301 10.0202 0C14.248 0 17.6933 3.54887 17.6933 7.91578V10.1654C17.6933 10.7429 17.9502 11.6932 18.2422 12.1865ZM9.98519 10.4782C10.4757 10.4782 10.8728 10.0692 10.8728 9.5639V5.83458C10.8728 5.32932 10.4757 4.9203 9.98519 4.9203C9.49467 4.9203 9.09759 5.32932 9.09759 5.83458V9.5639C9.09759 10.0692 9.49467 10.4782 9.98519 10.4782ZM9.99703 24C11.5153 24 12.8116 23.0015 13.3022 21.606C13.1036 21.6301 12.9167 21.6541 12.7299 21.6782C12.5721 21.7026 12.4091 21.716 12.2443 21.7295C12.1651 21.736 12.0854 21.7426 12.0058 21.7504C11.3518 21.8105 10.6861 21.8466 10.0204 21.8466C9.34301 21.8466 8.66563 21.8105 7.99994 21.7504C7.71964 21.7263 7.43935 21.6902 7.17073 21.6541C7.09387 21.6428 7.01959 21.6342 6.94668 21.6257C6.86449 21.6161 6.78403 21.6067 6.70358 21.594C6.86708 22.0872 7.14738 22.5684 7.5211 22.9293C8.16344 23.615 9.07439 24 9.99703 24Z" fill="#154998"/>
</svg>
