<svg width="18" height="18" viewBox="0 0 18 18" fill="none" xmlns="http://www.w3.org/2000/svg">
<path d="M15.5012 0H2.49884C1.12065 0 0 1.12065 0 2.49884V15.5012C0 16.8794 1.12065 18 2.49884 18H9.50117C9.77959 18 10.0023 17.7773 10.0023 17.4988C10.0023 17.2204 9.77959 16.9977 9.50117 16.9977H2.49884C1.67053 16.9977 1.00233 16.3225 0.995365 15.4942V2.49884C0.995365 1.67053 1.67053 1.00232 2.49884 0.99536H6V6.4942C6 6.77262 6.22274 6.99536 6.50116 6.99536H11.4988C11.7773 6.99536 12 6.77262 12 6.4942V0.99536H15.5012C16.3295 0.99536 16.9977 1.67053 17.0046 2.49884V10.5035C17.0046 10.7819 17.2274 11.0046 17.5058 11.0046C17.7842 11.0046 18.007 10.7819 18.007 10.5035V2.49884C18.007 1.12065 16.8863 0 15.5081 0H15.5012ZM10.9977 6H6.99536V1.00232H10.9977V6Z" fill="black"/>
<path d="M17.8541 13.8519L14.3529 17.3531C14.158 17.548 13.8379 17.548 13.643 17.3531L12.1395 15.8496C11.9446 15.6477 11.9515 15.3345 12.1534 15.1396C12.3483 14.9517 12.6546 14.9517 12.8495 15.1396L13.9979 16.2881L17.1441 13.1419C17.346 12.947 17.6592 12.954 17.8541 13.1558C18.042 13.3507 18.042 13.657 17.8541 13.8519Z" fill="black"/>
</svg>
