<svg width="35" height="35" viewBox="0 0 35 35" fill="none" xmlns="http://www.w3.org/2000/svg">
<path d="M2.18828 31.7192C2.03394 31.7201 1.88114 31.6884 1.73994 31.6261C1.59874 31.5637 1.47234 31.4722 1.36903 31.3576C1.26572 31.2429 1.18785 31.1076 1.14054 30.9607C1.09323 30.8138 1.07755 30.6585 1.09453 30.5051L1.93672 22.8489C1.9667 22.6042 2.07847 22.3768 2.25391 22.2036L20.1477 4.30983C20.4728 3.98408 20.8589 3.72565 21.284 3.54932C21.7091 3.37299 22.1648 3.28223 22.625 3.28223C23.0852 3.28223 23.5409 3.37299 23.966 3.54932C24.3911 3.72565 24.7772 3.98408 25.1023 4.30983L28.5039 7.71139C28.8297 8.03648 29.0881 8.42263 29.2644 8.84772C29.4407 9.27282 29.5315 9.72852 29.5315 10.1887C29.5315 10.6489 29.4407 11.1046 29.2644 11.5297C29.0881 11.9548 28.8297 12.341 28.5039 12.6661L10.6211 30.5489C10.4479 30.7243 10.2205 30.8361 9.97578 30.8661L2.31953 31.7083L2.18828 31.7192ZM4.08047 23.4614L3.42422 29.3895L9.35234 28.7333L26.9617 11.1239C27.0841 11.002 27.1812 10.8571 27.2474 10.6975C27.3137 10.538 27.3478 10.3669 27.3478 10.1942C27.3478 10.0215 27.3137 9.85041 27.2474 9.69088C27.1812 9.53134 27.0841 9.38645 26.9617 9.26451L23.5492 5.85201C23.4273 5.72965 23.2824 5.63257 23.1229 5.56632C22.9633 5.50008 22.7923 5.46598 22.6195 5.46598C22.4468 5.46598 22.2757 5.50008 22.1162 5.56632C21.9567 5.63257 21.8118 5.72965 21.6898 5.85201L4.08047 23.4614Z" fill="white"/>
<path d="M25.158 15.5422C25.014 15.543 24.8714 15.5154 24.7381 15.461C24.6048 15.4066 24.4836 15.3264 24.3814 15.225L17.5892 8.41092C17.4873 8.30894 17.4064 8.18787 17.3512 8.05463C17.296 7.92139 17.2676 7.77858 17.2676 7.63436C17.2676 7.49014 17.296 7.34733 17.3512 7.21409C17.4064 7.08084 17.4873 6.95978 17.5892 6.8578C17.6912 6.75582 17.8123 6.67492 17.9455 6.61973C18.0788 6.56454 18.2216 6.53613 18.3658 6.53613C18.51 6.53613 18.6528 6.56454 18.7861 6.61973C18.9193 6.67492 19.0404 6.75582 19.1424 6.8578L25.9564 13.6719C26.0589 13.7735 26.1403 13.8945 26.1958 14.0278C26.2514 14.1611 26.28 14.304 26.28 14.4484C26.28 14.5928 26.2514 14.7358 26.1958 14.8691C26.1403 15.0023 26.0589 15.1233 25.9564 15.225C25.8516 15.329 25.7269 15.4107 25.5897 15.4653C25.4524 15.5198 25.3056 15.5459 25.158 15.5422Z" fill="white"/>
<path d="M17.5932 13.6763L9.07812 22.1914L10.6249 23.7382L19.14 15.2231L17.5932 13.6763Z" fill="white"/>
<path d="M32.8125 31.7188H15.3125C15.0224 31.7188 14.7442 31.6035 14.5391 31.3984C14.334 31.1933 14.2188 30.9151 14.2188 30.625C14.2188 30.3349 14.334 30.0567 14.5391 29.8516C14.7442 29.6465 15.0224 29.5312 15.3125 29.5312H32.8125C33.1026 29.5312 33.3808 29.6465 33.5859 29.8516C33.791 30.0567 33.9062 30.3349 33.9062 30.625C33.9062 30.9151 33.791 31.1933 33.5859 31.3984C33.3808 31.6035 33.1026 31.7188 32.8125 31.7188Z" fill="white"/>
</svg>
