<svg width="21" height="22" viewBox="0 0 21 22" fill="none" xmlns="http://www.w3.org/2000/svg">
<path d="M11.7347 21.36H9.3904C8.74558 21.36 8.22097 20.8356 8.22097 20.191V17.8696C7.39101 17.5779 6.6095 17.1258 5.93937 16.5499L3.92534 17.7123C3.7485 17.814 3.54755 17.8676 3.34379 17.8676C2.92591 17.8676 2.53726 17.6448 2.32954 17.2862L1.1565 15.2541C0.835347 14.697 1.02713 13.9814 1.58395 13.6589L3.59699 12.4978C3.51503 12.0641 3.47351 11.6218 3.47351 11.18C3.47351 10.7382 3.51499 10.2959 3.59699 9.86208L1.58443 8.7014C1.02575 8.3777 0.834055 7.66101 1.15663 7.10341L2.32937 5.07401C2.53761 4.71452 2.92625 4.49143 3.34375 4.49143C3.54802 4.49143 3.74932 4.54556 3.9259 4.64798L5.9395 5.80849C6.61032 5.2334 7.39192 4.78188 8.22097 4.49044V2.16908C8.22097 1.52444 8.74558 1 9.3904 1H11.7348C12.3797 1 12.9043 1.52444 12.9043 2.16908V4.49039C13.7373 4.78295 14.519 5.23435 15.1861 5.80827L17.2 4.64755C17.3764 4.54552 17.5777 4.49143 17.7819 4.49143C18.1993 4.49143 18.5876 4.71473 18.795 5.07418L19.9686 7.10345C20.2906 7.66234 20.0987 8.37891 19.541 8.70127L17.5281 9.86217C17.6095 10.2937 17.6507 10.7361 17.6507 11.18C17.6507 11.6274 17.6096 12.0697 17.5284 12.498L19.5408 13.6586C19.8094 13.8124 20.0025 14.0634 20.0839 14.3648C20.1657 14.6676 20.1248 14.9834 19.9688 15.254L18.7959 17.2859C18.588 17.6448 18.1995 17.8676 17.7819 17.8677C17.5782 17.8677 17.3773 17.8141 17.2005 17.7128L15.186 16.5499C14.5162 17.1261 13.7346 17.5776 12.9043 17.868V20.191C12.9043 20.8356 12.3796 21.36 11.7347 21.36ZM5.97507 15.9067C6.04553 15.9067 6.11543 15.9325 6.16999 15.9824C6.86524 16.6175 7.70455 17.103 8.59722 17.3863C8.71725 17.4244 8.79877 17.5358 8.79877 17.6617V20.191C8.79877 20.517 9.06416 20.7822 9.39035 20.7822H11.7347C12.061 20.7822 12.3264 20.517 12.3264 20.191V17.6597C12.3264 17.5336 12.4082 17.4221 12.5284 17.3842C13.4212 17.1027 14.2604 16.618 14.955 15.9825C15.048 15.8975 15.1854 15.8825 15.2945 15.9455L17.4887 17.212C17.5773 17.2628 17.6789 17.2899 17.7818 17.2899C17.994 17.2899 18.1909 17.1775 18.2957 16.9967L19.4683 14.9654C19.547 14.8288 19.5676 14.6691 19.5261 14.5157C19.485 14.3635 19.388 14.2371 19.2529 14.1597L17.0591 12.8944C16.9497 12.8314 16.8939 12.7046 16.9214 12.5813C17.0219 12.1299 17.0729 11.6584 17.0729 11.1801C17.0729 10.7062 17.0219 10.2345 16.9213 9.77823C16.8942 9.65518 16.9499 9.52869 17.0591 9.46573L19.2521 8.20095C19.5341 8.03803 19.6311 7.67522 19.4682 7.39244L18.2947 5.36334C18.19 5.18189 17.9936 5.06936 17.7819 5.06936C17.6793 5.06936 17.578 5.09657 17.4891 5.14804L15.2944 6.41295C15.1853 6.47582 15.048 6.46075 14.9551 6.37573C14.264 5.7432 13.4247 5.25851 12.528 4.97396C12.408 4.93585 12.3265 4.82443 12.3265 4.69854V2.16912C12.3265 1.84314 12.0611 1.57784 11.7348 1.57784H9.3904C9.0642 1.57784 8.79882 1.8431 8.79882 2.16912V4.69846C8.79882 4.82434 8.71729 4.93576 8.59726 4.97387C7.70549 5.25679 6.8661 5.74169 6.16969 6.37612C6.0768 6.46084 5.93975 6.47565 5.83088 6.4129L3.63666 5.1483C3.54738 5.09649 3.44634 5.06931 3.34375 5.06931C3.13168 5.06931 2.93461 5.18202 2.82952 5.36347L1.65687 7.39274C1.49368 7.67483 1.59093 8.03747 1.87363 8.20121L4.06617 9.46568C4.17535 9.52865 4.23112 9.6551 4.20399 9.77818C4.10274 10.2374 4.05144 10.709 4.05144 11.18C4.05144 11.6511 4.10278 12.1228 4.20399 12.5819C4.23112 12.7049 4.17535 12.8314 4.06621 12.8944L1.8732 14.1592C1.59196 14.3221 1.4948 14.684 1.65708 14.9655L2.82978 16.9971C2.93435 17.1775 3.13138 17.2899 3.34384 17.2899C3.44668 17.2899 3.54806 17.2628 3.637 17.2117L5.83079 15.9455C5.87571 15.9194 5.92554 15.9067 5.97507 15.9067Z" fill="#AAAAAA" stroke="#AAAAAA"/>
<path d="M10.5632 14.6794C8.63129 14.6794 7.05957 13.1089 7.05957 11.1786C7.05957 9.2482 8.63129 7.67773 10.5632 7.67773C12.4944 7.67773 14.0656 9.2482 14.0656 11.1786C14.0656 13.1089 12.4944 14.6794 10.5632 14.6794ZM10.5632 8.25549C8.94991 8.25549 7.63741 9.56674 7.63741 11.1785C7.63741 12.7903 8.94991 14.1016 10.5632 14.1016C12.1758 14.1016 13.4878 12.7903 13.4878 11.1785C13.4878 9.56674 12.1759 8.25549 10.5632 8.25549Z" fill="#AAAAAA" stroke="#AAAAAA"/>
</svg>
