<svg width="19" height="19" viewBox="0 0 19 19" fill="none" xmlns="http://www.w3.org/2000/svg">
<path d="M18.6049 19.0003H0.395094C0.176344 19.0003 0 18.8239 0 18.6051V5.14724C0 4.92838 0.176344 4.75195 0.395094 4.75195H18.6049C18.8237 4.75195 19 4.92838 19 5.14724V18.6051C19 18.8239 18.8237 19.0003 18.6049 19.0003ZM0.792415 18.2098H18.2098V5.54477H0.792415V18.2098Z" fill="#231F20"/>
<path d="M18.6063 5.54302H0.396489C0.253632 5.54302 0.124166 5.46709 0.0527377 5.34426C-0.0186909 5.22143 -0.0164587 5.06957 0.0527377 4.94674L2.82059 0.196527C2.89202 0.0736963 3.02149 0 3.16211 0H16.2157C16.3652 0 16.5014 0.0848641 16.5684 0.218861L18.9434 4.94674C18.9768 5.0048 18.9969 5.07403 18.9969 5.1455C18.9969 5.36436 18.8206 5.54079 18.6018 5.54079L18.6063 5.54302ZM1.08622 4.75244H17.9657L15.9768 0.795051H3.39425L1.08622 4.75244Z" fill="#231F20"/>
<path d="M9.4947 5.54274C9.27595 5.54274 9.09961 5.36631 9.09961 5.14745V0.397246C9.09961 0.178384 9.27595 0.00195312 9.4947 0.00195312C9.71345 0.00195312 9.88979 0.178384 9.88979 0.397246V5.14745C9.88979 5.36631 9.71345 5.54274 9.4947 5.54274Z" fill="#231F20"/>
<path d="M17.0117 17.4177H9.89119C9.67244 17.4177 9.49609 17.2413 9.49609 17.0225V12.2722C9.49609 12.0534 9.67244 11.877 9.89119 11.877H17.0117C17.2305 11.877 17.4068 12.0534 17.4068 12.2722V17.0225C17.4068 17.2413 17.2305 17.4177 17.0117 17.4177ZM10.2863 16.6272H16.6166V12.6698H10.2863V16.6272Z" fill="#231F20"/>
<path d="M15.4286 14.2511H11.4732C11.2545 14.2511 11.0781 14.0748 11.0781 13.856C11.0781 13.6373 11.2545 13.4609 11.4732 13.4609H15.4286C15.6473 13.4609 15.8237 13.6373 15.8237 13.856C15.8237 14.0748 15.6473 14.2511 15.4286 14.2511Z" fill="#231F20"/>
<path d="M15.4286 15.8331H11.4732C11.2545 15.8331 11.0781 15.6568 11.0781 15.4381C11.0781 15.2193 11.2545 15.043 11.4732 15.043H15.4286C15.6473 15.043 15.8237 15.2193 15.8237 15.4381C15.8237 15.6568 15.6473 15.8331 15.4286 15.8331Z" fill="#231F20"/>
</svg>
