<svg width="27" height="27" viewBox="0 0 27 27" fill="none" xmlns="http://www.w3.org/2000/svg">
<circle cx="13.8053" cy="13.068" r="13.068" fill="black"/>
<path d="M10.1985 20.9459C9.43733 20.9459 8.72171 20.6492 8.18357 20.111L7.60757 19.5359C6.49669 18.425 6.49669 16.6168 7.60757 15.5063L11.3493 11.7646C11.8875 11.2264 12.6031 10.9297 13.3643 10.9297C14.1255 10.9297 14.8411 11.2264 15.3789 11.7646L15.9544 12.3402C16.1136 12.4993 16.1136 12.7566 15.9544 12.9158C15.7953 13.0749 15.538 13.0749 15.3789 12.9158L14.8033 12.3402C14.419 11.9559 13.9077 11.7438 13.3643 11.7438C12.8205 11.7438 12.3092 11.9559 11.9249 12.3402L8.18316 16.0815C7.38979 16.8749 7.38979 18.1661 8.18316 18.9599L8.75876 19.5355C9.14302 19.9197 9.6543 20.1318 10.1981 20.1318C10.7416 20.1318 11.2528 19.9197 11.6371 19.5355L14.2281 16.9449C14.3872 16.7857 14.6445 16.7857 14.8037 16.9449C14.9628 17.1041 14.9628 17.3613 14.8037 17.5205L12.2131 20.111C11.6754 20.6496 10.9598 20.9459 10.1985 20.9459Z" fill="white"/>
<path d="M15.0919 16.053C14.3311 16.053 13.6151 15.7563 13.0774 15.2181C12.9182 15.059 12.9182 14.8017 13.0774 14.6425C13.2365 14.4834 13.4938 14.4834 13.653 14.6425C14.0372 15.0268 14.5485 15.2389 15.0919 15.2389C15.6358 15.2389 16.1471 15.0268 16.5313 14.6425L20.2731 10.9008C21.0664 10.1074 21.0664 8.8162 20.2731 8.02283L19.6979 7.44643C18.9045 6.65306 17.6129 6.65306 16.8195 7.44643L14.2286 10.0374C14.0694 10.1966 13.8121 10.1966 13.653 10.0374C13.4938 9.87824 13.4938 9.62097 13.653 9.46181L16.2435 6.87125C17.3544 5.76037 19.1622 5.76037 20.2731 6.87125L20.8487 7.44724C21.9595 8.55813 21.9595 10.3659 20.8487 11.4764L17.1069 15.2181C16.5692 15.7563 15.8532 16.053 15.0919 16.053Z" fill="white"/>
</svg>
