<svg width="12" height="11" viewBox="0 0 12 11" fill="none" xmlns="http://www.w3.org/2000/svg">
<path d="M5.28671 1.0043C5.51122 0.313321 6.48878 0.313321 6.71329 1.0043L7.33383 2.91414C7.50118 3.42916 7.98112 3.77786 8.52265 3.77786H10.5308C11.2573 3.77786 11.5594 4.70757 10.9716 5.13463L9.34701 6.31497C8.9089 6.63327 8.72558 7.19748 8.89292 7.71251L9.51346 9.62234C9.73798 10.3133 8.94711 10.8879 8.35933 10.4609L6.73473 9.28052C6.29662 8.96222 5.70338 8.96222 5.26527 9.28052L3.64067 10.4609C3.05288 10.8879 2.26202 10.3133 2.48654 9.62234L3.10708 7.71251C3.27442 7.19748 3.0911 6.63327 2.65299 6.31497L1.02839 5.13463C0.440607 4.70758 0.742688 3.77786 1.46923 3.77786H3.47735C4.01888 3.77786 4.49882 3.42916 4.66617 2.91414L5.28671 1.0043Z" stroke="#8F959E" stroke-width="0.5"/>
</svg>
