<svg width="18" height="18" viewBox="0 0 18 18" fill="none" xmlns="http://www.w3.org/2000/svg">
<path d="M9.31008 13.4106L12.8566 15.6573C13.31 15.9441 13.8725 15.5172 13.7381 14.9879L12.7138 10.9576C12.6848 10.8453 12.6882 10.7271 12.7234 10.6167C12.7586 10.5062 12.8243 10.408 12.9129 10.3332L16.0933 7.68663C16.5106 7.339 16.2958 6.64544 15.7586 6.61056L11.6056 6.34056C11.4938 6.33263 11.3866 6.2931 11.2964 6.22658C11.2061 6.16006 11.1367 6.06928 11.096 5.96481L9.5469 2.06444C9.50472 1.95359 9.42984 1.85819 9.33219 1.79087C9.23455 1.72355 9.11875 1.6875 9.00015 1.6875C8.88155 1.6875 8.76575 1.72355 8.6681 1.79087C8.57046 1.85819 8.49558 1.95359 8.4534 2.06444L6.90427 5.96481C6.86372 6.06939 6.79429 6.16028 6.70406 6.22691C6.61383 6.29354 6.50652 6.33315 6.39465 6.34113L2.24171 6.61113C1.70508 6.64544 1.48908 7.339 1.90702 7.68663L5.0874 10.3338C5.17588 10.4085 5.2415 10.5067 5.27673 10.617C5.31195 10.7273 5.31534 10.8454 5.28652 10.9576L4.33702 14.6954C4.17558 15.3304 4.85115 15.8429 5.39452 15.4981L8.69077 13.4106C8.78342 13.3517 8.89093 13.3204 9.00071 13.3204C9.11049 13.3204 9.218 13.3517 9.31065 13.4106H9.31008Z" fill="#FF8A00"/>
</svg>
