<svg width="20" height="20" viewBox="0 0 20 20" fill="none" xmlns="http://www.w3.org/2000/svg">
<path d="M10.3275 19.2409C5.05036 19.2409 0.761719 14.9522 0.761719 9.67512C0.761719 4.39802 5.05036 0.109375 10.3275 0.109375C15.6046 0.109375 19.8932 4.39802 19.8932 9.67512C19.8932 14.9522 15.6046 19.2409 10.3275 19.2409Z" fill="url(#paint0_linear_271_9841)"/>
<path d="M13.1338 8.16952C13.636 8.16952 14.0345 7.76298 14.0345 7.26875V6.95786C14.0345 5.7462 13.0461 4.75774 11.8344 4.75774H11.2286V3.80117C11.2286 3.29896 10.8221 2.90039 10.3278 2.90039C9.83359 2.90039 9.42705 3.30694 9.42705 3.80117V4.75774H8.82122C7.60955 4.75774 6.62109 5.7462 6.62109 6.95786V8.37678C6.62109 9.58844 7.60955 10.5769 8.82122 10.5769H11.8344C12.0497 10.5769 12.225 10.7523 12.225 10.9755V12.3944C12.225 12.6096 12.0497 12.793 11.8344 12.793H8.82122C8.60599 12.793 8.43061 12.6176 8.43061 12.3944V12.0835C8.43061 11.5813 8.02407 11.1827 7.52984 11.1827C7.03561 11.1827 6.62906 11.5893 6.62906 12.0835V12.3944C6.62906 13.6061 7.61753 14.5945 8.82919 14.5945H9.43502V15.5511C9.43502 16.0533 9.84156 16.4519 10.3358 16.4519C10.83 16.4519 11.2366 16.0453 11.2366 15.5511V14.5945H11.8424C13.0541 14.5945 14.0425 13.6061 14.0425 12.3944V10.9755C14.0425 9.76381 13.0541 8.77536 11.8424 8.77536H8.82919C8.61396 8.77536 8.43859 8.59998 8.43859 8.37678V6.95786C8.43859 6.74263 8.61396 6.55929 8.82919 6.55929H11.8424C12.0576 6.55929 12.233 6.73466 12.233 6.95786V7.26875C12.225 7.77095 12.6316 8.16952 13.1338 8.16952Z" fill="white"/>
<defs>
<linearGradient id="paint0_linear_271_9841" x1="-0.664933" y1="20.6675" x2="17.2096" y2="2.79297" gradientUnits="userSpaceOnUse">
<stop stop-color="#F3AA0F"/>
<stop offset="1" stop-color="#FED46E"/>
</linearGradient>
</defs>
</svg>
