<svg width="27" height="27" viewBox="0 0 27 27" fill="none" xmlns="http://www.w3.org/2000/svg">
<circle cx="13.8071" cy="13.0698" r="13.0698" fill="black"/>
<rect x="7.23242" y="7.38184" width="13.0845" height="11.3434" rx="2" fill="black"/>
<path d="M8.94516 18.6888C8.8876 18.6632 8.84604 18.6344 8.91318 18.5768C8.95475 18.5448 8.99951 18.5161 9.04428 18.4873C9.46314 18.2154 9.85643 17.918 10.1154 17.4798C10.3328 17.1151 10.2977 16.9009 10.0259 16.6322C8.5103 15.1161 7.84524 13.3026 8.17777 11.1597C8.36642 9.95068 8.91958 8.90479 9.72533 7.99644C10.2113 7.44631 10.7901 7.00173 11.4232 6.63071C11.4615 6.60832 11.5159 6.60193 11.5223 6.54436C11.5095 6.51237 11.4871 6.52197 11.4679 6.52197C10.3904 6.52197 9.31286 6.49958 8.23852 6.52836C7.20894 6.56035 6.32005 7.35676 6.32325 8.49859C6.32965 11.8346 6.32325 15.1705 6.32325 18.5097C6.32325 19.546 7.11302 20.4127 8.14579 20.4511C9.0187 20.4863 9.8916 20.4575 10.7677 20.4543C10.8316 20.4575 10.8956 20.4607 10.9595 20.4607H15.5767C16.7277 20.4607 17.8788 20.4671 19.0299 20.4607C20.0978 20.4607 20.9644 19.5971 20.9644 18.5321V18.5129V16.6418C20.9644 16.597 20.9803 16.549 20.9516 16.5011C20.894 16.5042 20.8716 16.5522 20.8397 16.5842C20.2194 17.2079 19.4871 17.7101 18.6846 18.0651C16.7181 18.9319 14.7165 18.9926 12.6862 18.2954C12.5103 18.2314 12.3185 18.225 12.1362 18.2698C11.8676 18.3369 11.6022 18.4169 11.3368 18.4969C10.5567 18.7399 9.76051 18.8487 8.94516 18.6888ZM11.2633 13.2994C11.3177 13.2291 11.3464 13.1875 11.3784 13.1459C11.7973 12.615 12.2161 12.084 12.635 11.5499C12.7565 11.3964 12.878 11.2396 12.9548 11.0541C13.0443 10.843 12.9484 10.6447 12.7309 10.568C12.635 10.5392 12.5327 10.5264 12.4304 10.5328C11.8612 10.5296 11.2889 10.5296 10.7197 10.5328C10.6398 10.5328 10.5599 10.5424 10.4831 10.5616C10.3041 10.6064 10.1954 10.7887 10.2401 10.971C10.2721 11.0925 10.368 11.1885 10.4895 11.2173C10.5663 11.2364 10.6462 11.246 10.7261 11.2428C11.0715 11.246 11.42 11.2428 11.7653 11.246C11.8037 11.246 11.8516 11.2205 11.8804 11.278C11.8516 11.3164 11.8229 11.3548 11.7941 11.39C11.2985 12.0169 10.8061 12.6469 10.3105 13.2738C10.189 13.4306 10.125 13.6033 10.2145 13.7952C10.3041 13.9871 10.4863 14.0223 10.6718 14.0351C10.8189 14.0447 10.9691 14.0383 11.1194 14.0383C11.6374 14.0383 12.1522 14.0415 12.6702 14.0351C12.9452 14.0319 13.0922 13.8655 13.0635 13.6097C13.0411 13.4082 12.9036 13.3026 12.6478 13.2994C12.197 13.2962 11.7461 13.2994 11.2633 13.2994ZM14.9723 11.6171C14.5727 11.2684 14.1314 11.246 13.6998 11.5019C13.1754 11.809 12.9835 12.3111 13.0475 12.8932C13.1082 13.437 13.3448 13.8815 13.914 14.0639C14.2689 14.179 14.5982 14.1374 14.8892 13.9007C14.9659 13.84 14.9883 13.8528 15.0427 13.9199C15.1482 14.0543 15.3305 14.1054 15.4903 14.0447C15.6502 13.9967 15.7557 13.8496 15.7557 13.6832C15.7589 13.0436 15.7621 12.4039 15.7557 11.7642C15.7525 11.5083 15.5127 11.3452 15.2633 11.3964C15.1258 11.4252 15.0491 11.5179 14.9723 11.6171ZM17.1882 12.8037C17.1754 13.6033 17.8373 14.2078 18.6686 14.1246C19.4328 14.0479 19.9284 13.4753 19.9028 12.6661C19.8772 11.8665 19.2825 11.3196 18.4672 11.3452C17.703 11.3676 17.1626 11.9817 17.1882 12.8037ZM16.9068 12.1672C16.9068 11.665 16.91 11.1661 16.9068 10.6639C16.9068 10.4081 16.7437 10.2481 16.5007 10.2513C16.2641 10.2545 16.1074 10.4144 16.1042 10.6607C16.101 10.8111 16.1042 10.9582 16.1042 11.1085V13.6513C16.1042 13.8496 16.2257 14.0223 16.3856 14.0639C16.6062 14.1246 16.8333 13.9935 16.8908 13.7728C16.9004 13.7344 16.9068 13.696 16.9036 13.6545C16.91 13.1587 16.9068 12.6629 16.9068 12.1672Z" fill="#B9BCBC"/>
<path d="M10.7648 20.4579C9.89186 20.4579 9.01576 20.4867 8.14286 20.4547C7.11008 20.4132 6.32031 19.5464 6.32031 18.5133C6.32031 15.1773 6.32671 11.8414 6.32031 8.50223C6.32031 7.36039 7.2124 6.56399 8.23878 6.5352C9.31312 6.50641 10.3907 6.5288 11.4682 6.5288C11.4874 6.5288 11.513 6.51921 11.5226 6.55119C11.5162 6.60876 11.4586 6.61516 11.4234 6.63755C10.7903 7.00857 10.2116 7.45315 9.72559 8.00328C8.92303 8.91163 8.36668 9.95432 8.17803 11.1665C7.84549 13.3063 8.51376 15.123 10.0262 16.639C10.2947 16.9109 10.3299 17.122 10.1157 17.4866C9.85669 17.9248 9.4634 18.2222 9.04454 18.4941C8.99977 18.5197 8.95501 18.5517 8.91024 18.5805C8.8431 18.638 8.88466 18.6668 8.94222 18.6924C8.95501 18.7212 8.971 18.7468 8.99018 18.7724C9.35789 19.0986 9.70641 19.4472 10.0677 19.7799C10.2372 19.9366 10.4066 20.0997 10.5697 20.2628C10.6369 20.3236 10.7488 20.3428 10.7648 20.4579Z" fill="white"/>
<path d="M10.764 20.4569C10.748 20.3449 10.6361 20.3258 10.5689 20.2586C10.4058 20.0923 10.2364 19.9323 10.0669 19.7756C9.7056 19.443 9.35707 19.0944 8.98937 18.7681C8.97018 18.7425 8.9542 18.7169 8.94141 18.6882C9.75675 18.8481 10.5529 18.7393 11.3363 18.4995C11.6017 18.4195 11.8671 18.3395 12.1357 18.2724C12.3179 18.2244 12.5098 18.234 12.6856 18.298C14.7128 18.9952 16.7144 18.9312 18.684 18.0677C19.4866 17.7126 20.2188 17.2137 20.8391 16.59C20.8711 16.558 20.8935 16.51 20.951 16.5068C20.9798 16.5516 20.9638 16.5996 20.9638 16.6476V18.5186C20.9702 19.5869 20.1133 20.4569 19.0453 20.4665H19.0293C17.8783 20.4729 16.7272 20.4665 15.5761 20.4665H10.9558C10.8918 20.4601 10.8279 20.4569 10.764 20.4569Z" fill="white"/>
<path d="M11.2643 13.3C11.7471 13.3 12.2011 13.2968 12.652 13.3C12.9046 13.3032 13.0421 13.4088 13.0676 13.6103C13.0964 13.8629 12.9493 14.0325 12.6743 14.0357C12.1564 14.0421 11.6416 14.0389 11.1236 14.0389C10.9733 14.0389 10.8262 14.0452 10.6759 14.0357C10.4905 14.0261 10.3082 13.9877 10.2187 13.7958C10.1292 13.6039 10.1931 13.4312 10.3146 13.2744C10.807 12.6475 11.3026 12.0174 11.7982 11.3906C11.827 11.3522 11.8558 11.3138 11.8846 11.2786C11.8526 11.2242 11.8078 11.2498 11.7695 11.2466C11.4241 11.2434 11.0756 11.2466 10.7303 11.2434C10.6504 11.2434 10.5704 11.2338 10.4937 11.2178C10.3114 11.1763 10.1995 10.994 10.2411 10.8148C10.2699 10.6933 10.3658 10.5942 10.4873 10.5654C10.564 10.5462 10.644 10.5366 10.7239 10.5366C11.293 10.5334 11.8654 10.5334 12.4345 10.5366C12.5369 10.5334 12.636 10.5462 12.7351 10.5718C12.9525 10.6453 13.0453 10.8468 12.9589 11.0579C12.8822 11.2402 12.7607 11.397 12.6392 11.5537C12.2203 12.0878 11.8014 12.6188 11.3826 13.1465C11.3474 13.1881 11.3154 13.2297 11.2643 13.3Z" fill="white"/>
<path d="M14.9721 11.6184C15.0488 11.5193 15.1287 11.4265 15.2598 11.4009C15.5124 11.3498 15.749 11.5129 15.7522 11.7688C15.7618 12.4084 15.7586 13.0481 15.7522 13.6878C15.7522 13.8541 15.6435 14.0013 15.4869 14.0492C15.327 14.11 15.1447 14.062 15.0392 13.9245C14.9849 13.8573 14.9625 13.8445 14.8857 13.9053C14.5948 14.142 14.2654 14.1836 13.9105 14.0684C13.3414 13.8829 13.108 13.4383 13.044 12.8978C12.9769 12.3125 13.1719 11.8135 13.6963 11.5065C14.1311 11.2474 14.5724 11.2698 14.9721 11.6184ZM13.8402 12.7859C13.8466 12.9266 13.8913 13.0609 13.9745 13.1729C14.1471 13.4032 14.4765 13.4511 14.7099 13.2784C14.7482 13.2496 14.7834 13.2144 14.8154 13.1729C14.9945 12.9298 14.9945 12.53 14.8154 12.2869C14.7259 12.1622 14.5852 12.0886 14.4349 12.0854C14.0832 12.063 13.837 12.3349 13.8402 12.7859ZM17.1879 12.8051C17.1623 11.9831 17.7027 11.369 18.4701 11.3466C19.2854 11.321 19.8801 11.8679 19.9057 12.6675C19.9313 13.4767 19.4357 14.0492 18.6715 14.126C17.837 14.2092 17.1751 13.6047 17.1879 12.8051ZM17.9905 12.7283C17.9841 12.8882 18.032 13.0449 18.1279 13.1761C18.3038 13.4064 18.6331 13.4511 18.8634 13.272C18.8985 13.2464 18.9273 13.2144 18.9561 13.1825C19.1415 12.9394 19.1415 12.53 18.9593 12.2869C18.8698 12.1654 18.7291 12.0886 18.5788 12.0854C18.2335 12.0662 17.9905 12.3285 17.9905 12.7283ZM16.9065 12.1686C16.9065 12.6643 16.9097 13.1601 16.9065 13.6558C16.9097 13.8829 16.7307 14.0716 16.5036 14.078C16.4653 14.078 16.4237 14.0748 16.3853 14.0652C16.2255 14.0237 16.104 13.8541 16.104 13.6526V11.1099C16.104 10.9596 16.1008 10.8124 16.104 10.6621C16.1072 10.4158 16.2638 10.2559 16.5004 10.2559C16.7435 10.2527 16.9065 10.4126 16.9065 10.6685C16.9097 11.1675 16.9065 11.6696 16.9065 12.1686Z" fill="white"/>
<path d="M13.8399 12.7847C13.8367 12.3337 14.0829 12.0618 14.4314 12.081C14.5817 12.0874 14.7224 12.161 14.8119 12.2857C14.991 12.5256 14.991 12.9286 14.8119 13.1717C14.6392 13.402 14.3099 13.45 14.0765 13.2772C14.0381 13.2485 14.0029 13.2133 13.971 13.1717C13.891 13.0597 13.8463 12.9254 13.8399 12.7847ZM17.9902 12.7271C17.9902 12.3305 18.2332 12.065 18.5785 12.0842C18.7288 12.0874 18.8695 12.1642 18.959 12.2857C19.1412 12.5288 19.1412 12.9414 18.9558 13.1813C18.7767 13.4084 18.4442 13.4468 18.2172 13.2676C18.182 13.2421 18.1532 13.2101 18.1276 13.1749C18.0317 13.0438 17.987 12.887 17.9902 12.7271Z" fill="black"/>
<path d="M8.41525 6.53809H18.9061C20.054 6.53809 20.9844 7.46883 20.9844 8.61706V18.3083C20.9844 19.4565 20.054 20.3873 18.9061 20.3873H8.41525C7.26737 20.3873 6.33691 19.4565 6.33691 18.3083V8.61706C6.33691 7.46883 7.26737 6.53809 8.41525 6.53809Z" stroke="white" stroke-width="0.5" stroke-miterlimit="10"/>
</svg>
