<svg width="68" height="68" viewBox="0 0 68 68" fill="none" xmlns="http://www.w3.org/2000/svg">
<path d="M33.7 67.4C52.312 67.4 67.4 52.312 67.4 33.7C67.4 15.088 52.312 0 33.7 0C15.088 0 0 15.088 0 33.7C0 52.312 15.088 67.4 33.7 67.4Z" fill="#F1F2F2"/>
<path d="M15 28.4135V31.0341H17.6206V28.4135C17.6206 25.2858 18.8631 22.2863 21.0747 20.0747C23.2863 17.8631 26.2858 16.6206 29.4135 16.6206C32.5411 16.6206 35.5407 17.8631 37.7522 20.0747C39.9638 22.2863 41.2063 25.2858 41.2063 28.4135V31.0341H43.8269V28.4135C43.8269 24.5908 42.3084 20.9246 39.6053 18.2216C36.9023 15.5186 33.2361 14 29.4135 14C25.5908 14 21.9246 15.5186 19.2216 18.2216C16.5186 20.9246 15 24.5908 15 28.4135Z" fill="#85CCD5"/>
<path d="M39.2408 32.3436H30.0686V25.792L32.6892 23.1714H36.6202L39.2408 25.792V32.3436Z" fill="#88BE51"/>
<path d="M32.6895 19.2397H36.6204V23.1707H32.6895V19.2397Z" fill="#D65246"/>
<path d="M33.9995 25.793H39.2408V27.1033H33.9995V25.793Z" fill="#4A9500"/>
<path d="M20.6252 22.7891L25.4827 17.9316L28.7585 21.2074L27.4482 22.5177L29.6851 24.7546C29.9308 25.0003 30.0688 25.3336 30.0688 25.6811V38.8967C30.0688 39.2442 29.9308 39.5775 29.685 39.8232C29.4393 40.0689 29.106 40.207 28.7585 40.207H21.5518C21.2043 40.207 20.871 40.0689 20.6252 39.8232C20.3795 39.5775 20.2415 39.2442 20.2415 38.8967V23.7156C20.2415 23.3681 20.3795 23.0349 20.6252 22.7891Z" fill="#8851A0"/>
<path d="M25.4824 17.9313L27.4479 15.9658H29.4134L30.7237 17.2761V19.2416L28.7582 21.2071L25.4824 17.9313Z" fill="#D65246"/>
<path d="M41.2063 28.4136V31.0342L38.5856 51.9992H20.2412L17.6206 31.0342V28.4136H41.2063Z" fill="#348ED8"/>
<path d="M41.2061 30.3794V31.0346L41.1242 31.6897H19.5859V30.3794H41.2061Z" fill="#2C86D1"/>
<path d="M30.0687 45.4463V51.9979H20.2413L19.4224 45.4463H30.0687Z" fill="#2C86D1"/>
<path d="M50.3785 31.032H41.2063C41.2063 29.9895 41.6204 28.9896 42.3576 28.2524C43.0948 27.5152 44.0947 27.1011 45.1372 27.1011H50.3785V31.032Z" fill="#D65246"/>
<path d="M50.3784 27.7583H52.999V30.3789H50.3784V27.7583Z" fill="#C94C41"/>
<path d="M43.8269 31.0322H47.1027V33.6529H43.8269V31.0322Z" fill="#C94C41"/>
<path d="M47.1027 33.6538H43.8269C43.8269 36.6132 42.7683 39.475 40.8424 41.7219L39.896 42.826V50.6879C39.896 51.0354 40.034 51.3687 40.2798 51.6144C40.5255 51.8602 40.8588 51.9982 41.2063 51.9982H49.7234C50.0709 51.9982 50.4042 51.8602 50.6499 51.6144C50.8956 51.3687 51.0337 51.0354 51.0337 50.6879V42.826L50.0873 41.7219C48.1614 39.475 47.1027 36.6132 47.1027 33.6538Z" fill="#88BE51"/>
<path d="M42.5166 42.8271H51.0336V44.1375H42.5166V42.8271Z" fill="#4A9500"/>
<path d="M22.9052 37.5423L26.7927 33.6548V28.4136H37.2752V43.4822C37.2752 43.8297 37.1372 44.163 36.8914 44.4087C36.6457 44.6544 36.3124 44.7925 35.9649 44.7925C35.6174 44.7925 35.2841 44.6544 35.0384 44.4087C34.7926 44.163 34.6546 43.8297 34.6546 43.4822C34.6546 43.8297 34.5165 44.163 34.2708 44.4087C34.0251 44.6544 33.6918 44.7925 33.3443 44.7925C32.9967 44.7925 32.6635 44.6544 32.4177 44.4087C32.172 44.163 32.0339 43.8297 32.0339 43.4822C32.0339 43.8297 31.8959 44.163 31.6502 44.4087C31.4044 44.6544 31.0711 44.7925 30.7236 44.7925C30.3761 44.7925 30.0428 44.6544 29.7971 44.4087C29.5514 44.163 29.4133 43.8297 29.4133 43.4822C29.4133 43.8297 29.2753 44.163 29.0295 44.4087C28.7838 44.6544 28.4505 44.7925 28.103 44.7925C27.7555 44.7925 27.4222 44.6544 27.1765 44.4087C26.9307 44.163 26.7927 43.8297 26.7927 43.4822V37.3401L24.5511 39.3015C24.422 39.4144 24.2702 39.4985 24.106 39.5482C23.9418 39.5978 23.7689 39.6118 23.5988 39.5892C23.4288 39.5666 23.2655 39.508 23.1199 39.4173C22.9743 39.3265 22.8498 39.2057 22.7546 39.063C22.6001 38.8312 22.5307 38.553 22.5581 38.2757C22.5856 37.9985 22.7082 37.7393 22.9052 37.5423Z" fill="#4DB6E4"/>
<path d="M33.9995 38.2402H35.3098V43.4815H33.9995V38.2402Z" fill="#3BA5D3"/>
<path d="M31.3789 38.2402H32.6892V43.4815H31.3789V38.2402Z" fill="#3BA5D3"/>
<path d="M28.7583 38.2402H30.0686V43.4815H28.7583V38.2402Z" fill="#3BA5D3"/>
<path d="M15 46.7588H28.7583V52H15V46.7588Z" fill="#88BE51"/>
<path d="M15 44.1377H28.7583V46.7583H15V44.1377Z" fill="#5F9448"/>
<path d="M16.9656 48.7246H18.2759V50.0349H16.9656V48.7246Z" fill="#4A9500"/>
<path d="M19.5859 48.0669H20.8963V49.3772H19.5859V48.0669Z" fill="#4A9500"/>
<path d="M25.4824 48.7246H26.7927V50.0349H25.4824V48.7246Z" fill="#4A9500"/>
</svg>
