<svg width="68" height="68" viewBox="0 0 68 68" fill="none" xmlns="http://www.w3.org/2000/svg">
<path d="M0 33.7C0 15.1 15.1 0 33.7 0C52.3 0 67.4 15.1 67.4 33.7C67.4 52.3 52.3 67.4 33.7 67.4C15.1 67.4 0 52.3 0 33.7Z" fill="#F1F2F2"/>
<path d="M32.0999 25.1001C40.8813 25.1001 48 23.3092 48 21.1001C48 18.891 40.8813 17.1001 32.0999 17.1001C23.3186 17.1001 16.2 18.891 16.2 21.1001C16.2 23.3092 23.3186 25.1001 32.0999 25.1001Z" fill="#B2E3FA"/>
<path d="M19.7 21.1002C19.7 19.1002 25.9 17.4002 33.7999 17.2002C33.1999 17.2002 32.5999 17.2002 32.0999 17.2002C23.2999 17.2002 16.2 19.0002 16.2 21.2002C16.2 23.4002 23.2999 25.2002 32.0999 25.2002C32.6999 25.2002 33.2999 25.2002 33.7999 25.2002C25.9 24.8002 19.7 23.2002 19.7 21.1002Z" fill="#74C8F0"/>
<path d="M47.9001 25.3999V22.3999H46.3V41.2999C47.3 40.6999 47.9001 39.5999 47.9001 38.3999V29.9999C47.9001 28.6999 49 27.5999 50.3 27.5999H54V25.2999L47.9001 25.3999Z" fill="#8DC63F"/>
<path d="M44.5999 41.7999H19.6C17.7 41.7999 16.2 40.2999 16.2 38.3999V22.3999H48V38.3999C48 40.2999 46.4999 41.7999 44.5999 41.7999Z" fill="#8DC63F"/>
<path d="M10.2 27.6999H13.9C15.2 27.6999 16.3 28.7999 16.3 30.0999V38.4999C16.3 40.3999 17.8 41.8999 19.7 41.8999H44.7C45.7999 41.8999 46.7 41.3999 47.2999 40.5999H29.1C27.2 40.5999 25.7 39.0999 25.7 37.1999V22.3999H16.3V25.3999H10.3" fill="#6FA642"/>
<path d="M50.3 28H53.6C54.4 28 55.1 27.3 55.1 26.5C55.1 25.7 54.4 25 53.6 25H50.3V28Z" fill="#383D42"/>
<path d="M13.8 25L10.5 25C9.70005 25 9.00005 25.7 9.00005 26.5C9.00005 27.3 9.70005 28 10.5 28L13.8 28L13.8 25Z" fill="#383D42"/>
<path d="M48 23.8999H16.2C15.4 23.8999 14.7 23.1999 14.7 22.3999C14.7 21.5999 15.4 20.8999 16.2 20.8999H48C48.7999 20.8999 49.5 21.5999 49.5 22.3999C49.5 23.1999 48.9 23.8999 48 23.8999Z" fill="#8DC63F"/>
<path d="M24.2 22.3999C24.2 21.5999 24.9 20.8999 25.7 20.8999H16.2C15.4 20.8999 14.7 21.5999 14.7 22.3999C14.7 23.1999 15.4 23.8999 16.2 23.8999H25.7C24.9 23.8999 24.2 23.1999 24.2 22.3999Z" fill="#6FA642"/>
<path d="M45.4 22.8999H34C33.4 22.8999 33 22.4999 33 21.8999C33 21.2999 33.4 20.8999 34 20.8999H45.4C46 20.8999 46.4 21.2999 46.4 21.8999C46.4 22.3999 45.9 22.8999 45.4 22.8999Z" fill="#6FA642"/>
<path d="M34 12.7998H30.2C29.4 12.7998 28.7 13.4998 28.7 14.2998C28.7 15.0998 29.4 15.7998 30.2 15.7998H30.4V17.0998H33.7999V15.7998H34C34.8 15.7998 35.5 15.0998 35.5 14.2998C35.5 13.4998 34.9 12.7998 34 12.7998Z" fill="#383D42"/>
<path d="M54.2 51.2H37.1C32.9 51.2 29.5 47.8 29.5 43.6C29.5 39.4 32.9 36 37.1 36H54.2V51.2Z" fill="#B2E3FA"/>
<path d="M29.7 41.6997C29.6 42.2997 29.5 42.8997 29.5 43.5997C29.5 47.7997 32.9 51.1997 37.1 51.1997H54.2V47.4997H37.1C33.5 47.3997 30.5 44.9997 29.7 41.6997Z" fill="#74C8F0"/>
<path d="M50.1999 42.6999C49.5999 42.6999 48.9999 42.3998 48.4999 41.8998L40.6999 33.2998C39.7999 32.3998 39.8999 30.8998 40.8999 30.0998C41.7999 29.1998 43.2999 29.2998 44.0999 30.2998L51.8999 38.8998C52.7999 39.7998 52.6999 41.2998 51.6999 42.0998C51.2999 42.4998 50.6999 42.6999 50.1999 42.6999Z" fill="#B2E3FA"/>
<path d="M39.6 42.6996L40.9 41.7996C41 41.6996 41.1 41.5996 41.1 41.4996L41.6 39.9996C41.7 39.6996 42.1 39.4996 42.4 39.6996L43.7 40.5996C43.8 40.6996 43.9 40.6996 44 40.6996H45.6C46 40.6996 46.2 40.9996 46.1 41.3996L45.6 42.8996C45.6 42.9996 45.6 43.0996 45.6 43.1996L46.1 44.6996C46.2 44.9996 46 45.3996 45.6 45.3996H44C43.9 45.3996 43.8 45.3996 43.7 45.4996L42.4 46.3996C42.1 46.5996 41.7 46.4996 41.6 46.0996L41.1 44.5996C41.1 44.4996 41 44.3996 40.9 44.2996L39.6 43.3996C39.3 43.2996 39.3 42.8996 39.6 42.6996Z" fill="#74C8F0"/>
<path d="M53.4 50.4996H52.9V49.1996H53.4V50.4996ZM53.4 47.8996H52.9V46.5996H53.4V47.8996ZM53.4 45.2996H52.9V43.9996H53.4V45.2996ZM53.4 42.5996H52.9V41.2996H53.4V42.5996ZM53.4 39.9996H52.9V38.6996H53.4V39.9996ZM53.4 37.3996H52.9V36.0996H53.4V37.3996Z" fill="#74C8F0"/>
<path d="M56.2 54.6995C55.6 54.6995 55.1 54.4995 54.7 54.0995C54 53.3995 53.6 50.6995 53.5 50.3995L53.4 49.9995L53.8 50.0995C54.1 50.0995 56.8 50.4995 57.5 51.2995C57.9 51.6995 58.1 52.1995 58.1 52.7995C58.1 53.3995 57.9 53.8995 57.5 54.2995C57.3 54.3995 56.7 54.6995 56.2 54.6995ZM54.3 50.6995C54.5 51.7995 54.8 53.1995 55.2 53.5995C55.5 53.8995 55.8 53.9995 56.2 53.9995C56.6 53.9995 56.9 53.8995 57.2 53.5995C57.5 53.2995 57.6 52.9995 57.6 52.5995C57.6 52.1995 57.5 51.8995 57.2 51.5995C56.8 51.1995 55.3 50.8995 54.3 50.6995Z" fill="#74C8F0"/>
</svg>
