<svg width="68" height="68" viewBox="0 0 68 68" fill="none" xmlns="http://www.w3.org/2000/svg">
<rect width="68" height="68" fill="#E5E5E5"/>
<g clip-path="url(#clip0_0_1)">
<rect width="375" height="1712" transform="translate(-290 -263)" fill="white"/>
<path d="M67.4 33.7C67.4 52.3 52.3 67.4 33.7 67.4C15.1 67.4 0 52.3 0 33.7C0 15.1 15.1 0 33.7 0C52.3 0 67.4 15.1 67.4 33.7Z" fill="#F1F2F2"/>
<path d="M22.2999 32H21.5999C20.8999 32 20.2999 32.6 20.2999 33.3V34C20.2999 35.9 21.8 37.4 23.7 37.4H24.3999C25.0999 37.4 25.7 36.8 25.7 36.1V35.4C25.7 33.5 24.1999 32 22.2999 32Z" fill="#3FB549"/>
<path d="M26.2999 32H25.5999C24.8999 32 24.2999 32.6 24.2999 33.3V34C24.2999 35.9 25.8 37.4 27.7 37.4H28.3999C29.0999 37.4 29.7 36.8 29.7 36.1V35.4C29.7 33.5 28.1999 32 26.2999 32Z" fill="#81C341"/>
<path d="M20.9999 36H20.2999C19.5999 36 18.9999 36.6 18.9999 37.3V38C18.9999 39.9 20.4999 41.4 22.3999 41.4H23.0999C23.7999 41.4 24.3999 40.8 24.3999 40.1V39.4C24.2999 37.5 22.7999 36 20.9999 36Z" fill="#1F5A2D"/>
<path d="M24.9999 36H24.2999C23.5999 36 22.9999 36.6 22.9999 37.3V38C22.9999 39.9 24.4999 41.4 26.3999 41.4H27.0999C27.7999 41.4 28.3999 40.8 28.3999 40.1V39.4C28.2999 37.5 26.7999 36 24.9999 36Z" fill="#128240"/>
<path d="M28.9999 36H28.2999C27.5999 36 26.9999 36.6 26.9999 37.3V38C26.9999 39.9 28.4999 41.4 30.3999 41.4H31.0999C31.7999 41.4 32.3999 40.8 32.3999 40.1V39.4C32.3999 37.5 30.8999 36 28.9999 36Z" fill="#3FB549"/>
<path d="M38.4999 31.0996L39.1999 29.0996L40.4999 29.4996L39.7999 31.4996L38.4999 31.0996Z" fill="#128240"/>
<path d="M41.2 31.0996L41.8999 29.0996L43.2 29.4996L42.4999 31.4996L41.2 31.0996Z" fill="#128240"/>
<path d="M43.7998 31.0996L44.4998 29.0996L45.7998 29.4996L45.0998 31.4996L43.7998 31.0996Z" fill="#128240"/>
<path d="M39.0999 30.5996C37.9999 30.5996 37.0999 31.4996 37.0999 32.5996V35.9996H41.0999V32.5996C41.0999 31.4996 40.1999 30.5996 39.0999 30.5996Z" fill="#F6891F"/>
<path d="M41.7999 30.5996C40.6999 30.5996 39.7999 31.4996 39.7999 32.5996V35.9996H43.7999V32.5996C43.7999 31.4996 42.8999 30.5996 41.7999 30.5996Z" fill="#F2663D"/>
<path d="M44.4999 30.5996C43.3999 30.5996 42.4999 31.4996 42.4999 32.5996V35.9996H46.4999V32.5996C46.4999 31.4996 45.5999 30.5996 44.4999 30.5996Z" fill="#B6DCEA"/>
<path d="M35.7 35.2998H47.7999V40.6998H35.7V35.2998Z" fill="#FBA919"/>
<path d="M51.2 41.3998H16.2999V25.2998H17.5999V40.0998H49.8999V25.2998H51.2V41.3998Z" fill="#753D19"/>
<path d="M31.7 13.7998H35.7V23.1998H31.7V13.7998Z" fill="#B6DCEA"/>
<path d="M27.7 23.2999V13.8999H24.7L23.7 23.2999H27.7Z" fill="#B6DCEA"/>
<path d="M27.7 13.7998H31.7V23.1998H27.7V13.7998Z" fill="#8DC63F"/>
<path d="M23.5999 23.2999L24.5999 13.8999H21.5999L19.4999 23.2999H23.5999Z" fill="#8DC63F"/>
<path d="M47.7999 23.2999L45.7 13.8999H42.7L43.7 23.2999H47.7999Z" fill="#8DC63F"/>
<path d="M21.6999 13.7998H19.5999L15.5999 21.8998V23.1998H19.5999L21.6999 13.7998Z" fill="#B6DCEA"/>
<path d="M43.7998 23.2999L42.7998 13.8999H39.7998V23.2999H43.7998Z" fill="#B6DCEA"/>
<path d="M35.7 13.7998H39.7V23.1998H35.7V13.7998Z" fill="#8DC63F"/>
<path d="M47.7999 13.7998H45.7L47.7999 23.1998H51.7999V21.8998L47.7999 13.7998Z" fill="#B6DCEA"/>
<path d="M15.5999 23.2998V25.2998C15.5999 26.3998 16.4999 27.2998 17.5999 27.2998C18.6999 27.2998 19.5999 26.3998 19.5999 25.2998V23.2998H15.5999Z" fill="#B6DCEA"/>
<path d="M19.5999 23.2998V25.2998C19.5999 26.3998 20.4999 27.2998 21.5999 27.2998C22.6999 27.2998 23.5999 26.3998 23.5999 25.2998V23.2998H19.5999Z" fill="#6FA642"/>
<path d="M23.5999 23.2998V25.2998C23.5999 26.3998 24.4999 27.2998 25.5999 27.2998C26.6999 27.2998 27.5999 26.3998 27.5999 25.2998V23.2998H23.5999Z" fill="#B6DCEA"/>
<path d="M27.7 23.2998V25.2998C27.7 26.3998 28.6 27.2998 29.7 27.2998C30.8 27.2998 31.7 26.3998 31.7 25.2998V23.2998H27.7Z" fill="#6FA642"/>
<path d="M31.7 23.2998V25.2998C31.7 26.3998 32.6 27.2998 33.7 27.2998C34.8 27.2998 35.7 26.3998 35.7 25.2998V23.2998H31.7Z" fill="#B6DCEA"/>
<path d="M35.7 23.2998V25.2998C35.7 26.3998 36.6 27.2998 37.7 27.2998C38.8 27.2998 39.7 26.3998 39.7 25.2998V23.2998H35.7Z" fill="#6FA642"/>
<path d="M39.7999 23.2998V25.2998C39.7999 26.3998 40.6999 27.2998 41.7999 27.2998C42.8999 27.2998 43.7999 26.3998 43.7999 25.2998V23.2998H39.7999Z" fill="#B6DCEA"/>
<path d="M43.7999 23.2998V25.2998C43.7999 26.3998 44.6999 27.2998 45.7999 27.2998C46.8999 27.2998 47.7999 26.3998 47.7999 25.2998V23.2998H43.7999Z" fill="#6FA642"/>
<path d="M47.7999 25.2998C47.7999 26.3998 48.6999 27.2998 49.7999 27.2998C50.8999 27.2998 51.7999 26.3998 51.7999 25.2998V23.2998H47.7999V25.2998Z" fill="#B6DCEA"/>
<path d="M14.8999 40.0996H52.4999V53.4996H14.8999V40.0996Z" fill="#8DC63F"/>
<path d="M37.7999 37.3999H45.8999V38.6999H37.7999V37.3999Z" fill="#E37925"/>
<path d="M38.5999 44.2998L40.5999 42.2998L41.5999 43.2998L39.5999 45.2998L38.5999 44.2998Z" fill="#3FB549"/>
<path d="M39.7998 44.7998H41.7998V46.0998H39.7998V44.7998Z" fill="#3FB549"/>
<path d="M37.6999 43.3999H37.4999C36.5999 43.3999 35.7999 43.7999 35.2999 44.5999L32.7999 48.1999C32.2999 48.9999 32.3999 49.9999 33.1999 50.5999C33.4999 50.7999 33.7999 50.8999 34.1999 50.8999H34.2999C34.5999 50.8999 34.7999 50.7999 35.0999 50.6999L39.0999 48.6999C40.4999 47.9999 40.9999 46.3999 40.2999 44.9999C39.6999 43.9999 38.6999 43.3999 37.6999 43.3999Z" fill="#F2663D"/>
<path d="M30.3999 44.0996H29.6999C28.9999 44.0996 28.3999 44.6996 28.3999 45.3996V46.0996C28.3999 48.6996 30.4999 50.7996 33.0999 50.7996H33.7999C34.4999 50.7996 35.0999 50.1996 35.0999 49.4996V48.7996C35.0999 46.1996 32.9999 44.0996 30.3999 44.0996Z" fill="#FFE07E"/>
</g>
<defs>
<clipPath id="clip0_0_1">
<rect width="375" height="1712" fill="white" transform="translate(-290 -263)"/>
</clipPath>
</defs>
</svg>
