<svg width="68" height="68" viewBox="0 0 68 68" fill="none" xmlns="http://www.w3.org/2000/svg">
<path d="M33.7 67.4C52.312 67.4 67.4 52.312 67.4 33.7C67.4 15.088 52.312 0 33.7 0C15.088 0 0 15.088 0 33.7C0 52.312 15.088 67.4 33.7 67.4Z" fill="#F1F2F2"/>
<path d="M15 14.9995H52.9999V52.9994H15V14.9995Z" fill="#4DB6E4" fill-opacity="0.2"/>
<path d="M17.6206 17.6196H50.3791V50.3782H17.6206V17.6196Z" fill="#85CCD5"/>
<path d="M18.5477 17.6202H17.6207V18.5473L15 15.9266V14.9995H15.9271L18.5477 17.6202Z" fill="#D5D5D3"/>
<path d="M52.9999 14.9995V15.9266L50.3792 18.5473V17.6202H49.4521L52.0728 14.9995H52.9999Z" fill="#D5D5D3"/>
<path d="M18.5477 50.3797L15.9271 53.0004H15V52.0733L17.6207 49.4526V50.3797H18.5477Z" fill="#D5D5D3"/>
<path d="M52.9999 52.0733V53.0004H52.0728L49.4521 50.3797H50.3792V49.4526L52.9999 52.0733Z" fill="#D5D5D3"/>
<path d="M17.6206 17.6196H50.3791V18.93H17.6206V17.6196Z" fill="#7FC6CE"/>
<path d="M17.6191 35.3076L35.3061 17.6207L37.2713 19.5859L19.5843 37.2728L17.6191 35.3076Z" fill="#4A9500"/>
<path d="M52.9999 42.5169V50.3789L47.7585 45.1376L51.6896 41.2065L52.9999 42.5169Z" fill="#FDC8A2"/>
<path d="M46.1562 44.8103L31.9869 30.1162L32.0345 30.0685V24.8271L24.8276 32.034H29.9754L44.1557 46.7395C44.2838 46.8724 44.4372 46.9784 44.6067 47.0514C44.7763 47.1243 44.9587 47.1628 45.1433 47.1644C45.3279 47.1661 45.511 47.131 45.6819 47.0611C45.8528 46.9913 46.008 46.888 46.1385 46.7575C46.3961 46.5 46.5422 46.1517 46.5455 45.7875C46.5488 45.4234 46.409 45.0725 46.1562 44.8103Z" fill="#FFB431"/>
<path d="M37.4875 22.0146L38.3838 21.0581L48.8732 30.8865L47.9769 31.8431L37.4875 22.0146Z" fill="#ADD7DB"/>
<path d="M21.0847 38.3921L22.0111 37.4657L32.4923 47.9468L31.5658 48.8732L21.0847 38.3921Z" fill="#ADD7DB"/>
<path d="M41.3945 21.3623L42.3209 20.4359L47.5615 25.6765L46.6351 26.6029L41.3945 21.3623Z" fill="#ADD7DB"/>
<path d="M20.4292 42.3228L21.3556 41.3963L26.5962 46.6369L25.6698 47.5633L20.4292 42.3228Z" fill="#ADD7DB"/>
<path d="M52.3448 40.5508L47.1034 45.7922L45.929 44.6178L45.0019 43.6907L43.8275 42.5163H37.931C37.5835 42.5163 37.2502 42.3783 37.0044 42.1325C36.7587 41.8868 36.6207 41.5535 36.6207 41.206V40.5508H35.9655C35.618 40.5508 35.2847 40.4128 35.0389 40.167C34.7932 39.9213 34.6551 39.588 34.6551 39.2405V38.5853H34C33.6525 38.5853 33.3192 38.4472 33.0734 38.2015C32.8277 37.9558 32.6896 37.6225 32.6896 37.275V36.6198H32.0345C31.6869 36.6198 31.3536 36.4817 31.1079 36.236C30.8622 35.9903 30.7241 35.657 30.7241 35.3094C30.7241 34.9619 30.8622 34.6286 31.1079 34.3829C31.3536 34.1372 31.6869 33.9991 32.0345 33.9991H35.7313L33.2039 31.3784H43.1724L52.3448 40.5508Z" fill="#88BE51"/>
<path d="M35.9653 33.3452H39.2412V34.6556H35.9653V33.3452Z" fill="#4A9500"/>
<path d="M44.9954 43.6904L48.5982 40.0876L49.5252 41.0145L45.9223 44.6174L44.9954 43.6904Z" fill="#4A9500"/>
</svg>
