<svg width="68" height="68" viewBox="0 0 68 68" fill="none" xmlns="http://www.w3.org/2000/svg">
<path d="M0 33.7501C0 15.1224 15.1 0 33.7 0C52.3 0 67.4 15.1224 67.4 33.7501C67.4 52.3777 52.3 67.4 33.7 67.4C15.1 67.4 0 52.3777 0 33.7501Z" fill="#F1F2F2"/>
<path d="M15.6096 30.4332L30.3906 15.6303C30.9943 15.0257 31.813 14.686 32.6667 14.686C33.5205 14.686 34.3392 15.0257 34.9429 15.6303L48.1953 28.9024C48.4972 29.2047 48.6667 29.6147 48.6668 30.0422C48.6667 30.4697 48.4972 30.8796 48.1953 31.1819L31.1382 48.2644C30.8363 48.5667 30.4269 48.7365 30.0001 48.7366C29.5732 48.7365 29.1638 48.5667 28.862 48.2644L15.6096 34.9923C15.0059 34.3878 14.6668 33.5678 14.6667 32.7128C14.6668 31.8578 15.0059 31.0378 15.6096 30.4332Z" fill="#88BE51"/>
<path d="M32.1931 17.8496L33.1132 16.8841L47.7727 30.8953L46.8526 31.8608L32.1931 17.8496Z" fill="#4A9500"/>
<path d="M30.1899 46.5366L31.1326 45.5926L32.4657 46.9276L31.523 47.8717L30.1899 46.5366Z" fill="#4A9500"/>
<path d="M27.5237 43.8672L28.4663 42.9231L29.7995 44.2582L28.8568 45.2023L27.5237 43.8672Z" fill="#4A9500"/>
<path d="M24.8577 41.1978L25.8003 40.2537L27.1334 41.5888L26.1908 42.5328L24.8577 41.1978Z" fill="#4A9500"/>
<path d="M22.1917 38.5259L23.1343 37.5818L24.4674 38.9169L23.5248 39.861L22.1917 38.5259Z" fill="#4A9500"/>
<path d="M19.5254 35.8564L20.4681 34.9124L21.8012 36.2475L20.8585 37.1915L19.5254 35.8564Z" fill="#4A9500"/>
<path d="M16.8594 33.1846L17.802 32.2405L19.1351 33.5756L18.1925 34.5197L16.8594 33.1846Z" fill="#4A9500"/>
<path d="M45.8888 35.2743L45.4231 26.4139C45.399 25.9522 45.1988 25.5173 44.8639 25.199C44.529 24.8806 44.0849 24.7031 43.6231 24.7031C43.1777 24.7031 42.748 24.8682 42.417 25.1667C42.0859 25.4652 41.8769 25.8758 41.8303 26.3195L41.3653 30.7438L39.3332 28.709L33.3332 22.7001C33.1581 22.5247 32.9503 22.3856 32.7215 22.2907C32.4927 22.1958 32.2475 22.147 31.9999 22.147C31.7523 22.147 31.5071 22.1958 31.2783 22.2907C31.0495 22.3856 30.8417 22.5247 30.6666 22.7001C30.4915 22.8754 30.3526 23.0836 30.2578 23.3127C30.163 23.5419 30.1143 23.7874 30.1143 24.0354C30.1143 24.2834 30.163 24.529 30.2578 24.7581C30.3526 24.9872 30.4915 25.1954 30.6666 25.3707L36.6666 31.3796L30.6666 25.3707C30.4915 25.1954 30.2836 25.0563 30.0548 24.9614C29.826 24.8664 29.5808 24.8176 29.3332 24.8176C29.0856 24.8176 28.8404 24.8664 28.6116 24.9614C28.3829 25.0563 28.175 25.1954 27.9999 25.3707C27.8248 25.5461 27.6859 25.7543 27.5911 25.9834C27.4964 26.2125 27.4476 26.458 27.4476 26.706C27.4476 26.954 27.4964 27.1996 27.5911 27.4287C27.6859 27.6578 27.8248 27.866 27.9999 28.0414L33.9999 34.0503L27.9999 28.0414C27.8248 27.866 27.6169 27.7269 27.3882 27.632C27.1594 27.5371 26.9142 27.4882 26.6666 27.4882C26.4189 27.4882 26.1737 27.5371 25.945 27.632C25.7162 27.7269 25.5083 27.866 25.3332 28.0414C25.1581 28.2167 25.0192 28.4249 24.9245 28.654C24.8297 28.8831 24.7809 29.1287 24.7809 29.3767C24.7809 29.6247 24.8297 29.8702 24.9245 30.0993C25.0192 30.3284 25.1581 30.5366 25.3332 30.712L31.3332 36.7209L25.3332 30.712C25.1581 30.5366 24.9503 30.3975 24.7215 30.3026C24.4927 30.2077 24.2475 30.1589 23.9999 30.1589C23.7523 30.1589 23.5071 30.2077 23.2783 30.3026C23.0495 30.3975 22.8417 30.5366 22.6666 30.712C22.4915 30.8873 22.3526 31.0955 22.2578 31.3246C22.163 31.5537 22.1143 31.7993 22.1143 32.0473C22.1143 32.2953 22.163 32.5408 22.2578 32.77C22.3526 32.9991 22.4915 33.2073 22.6666 33.3826L28.6666 39.3915L42.6666 53.4123L53.3332 42.7298L45.8888 35.2743Z" fill="#FFB431"/>
<path d="M43.9929 52.0767L51.9917 44.066L53.9914 46.0686L45.9926 54.0793L43.9929 52.0767Z" fill="#FDC8A2"/>
<path d="M42.1887 48.9307L50.8541 40.2524L51.7967 41.1965L43.1314 49.8747L42.1887 48.9307Z" fill="#F9A40F"/>
<path d="M30.1919 25.8447L31.1346 24.9007L37.1336 30.9086L36.191 31.8527L30.1919 25.8447Z" fill="#F9A40F"/>
<path d="M27.5251 28.5142L28.4678 27.5701L34.4669 33.5781L33.5242 34.5221L27.5251 28.5142Z" fill="#F9A40F"/>
<path d="M24.8584 31.1841L25.8011 30.24L31.8001 36.248L30.8575 37.1921L24.8584 31.1841Z" fill="#F9A40F"/>
<path d="M15.5378 48.8067L14.2117 48.6679C14.5509 45.415 15.3022 42.2186 16.4474 39.1558L17.6959 39.6245C16.5905 42.5811 15.8653 45.6667 15.5378 48.8067Z" fill="#88BE51"/>
<path d="M15.3333 54.0785H14V52.7432C14 51.8388 14.0315 50.9247 14.0938 50.0264L15.4238 50.1188C15.3638 50.9865 15.3333 51.8694 15.3333 52.7432V54.0785Z" fill="#88BE51"/>
<path d="M23.3333 54.0794H22V53.0252C21.9986 50.3952 22.3335 47.7758 22.9964 45.231L24.2864 45.5688C23.6523 48.0033 23.332 50.5092 23.3333 53.0252V54.0794Z" fill="#88BE51"/>
<path d="M39.5674 17.7219L39.0994 16.4715C43.3023 14.8941 47.8647 14.0695 52.6599 14.0205L52.6735 15.3558C48.0339 15.4031 43.6245 16.1992 39.5674 17.7219Z" fill="#88BE51"/>
<path d="M46.1477 24.3755L45.8525 23.0735C47.989 22.5881 50.2155 22.3391 52.6595 22.3125L52.674 23.6478C50.3255 23.673 48.1908 23.9111 46.1477 24.3755Z" fill="#88BE51"/>
</svg>
