<svg width="68" height="68" viewBox="0 0 68 68" fill="none" xmlns="http://www.w3.org/2000/svg">
<rect width="68" height="68" fill="#E5E5E5"/>
<g clip-path="url(#clip0_0_1)">
<rect width="375" height="1712" transform="translate(-17 -263)" fill="white"/>
<path d="M0 33.7C0 15.1 15.1 0 33.7 0C52.3 0 67.4 15.1 67.4 33.7C67.4 52.3 52.3 67.3 33.7 67.3C15.1 67.3 0 52.3 0 33.7Z" fill="#F1F2F2"/>
<path d="M51.6 34.5998H50.1V29.3998C50.1 25.6998 47.1 22.7998 43.5 22.7998C39.9 22.7998 36.9 25.7998 36.9 29.3998V33.7998H35.4V29.3998C35.4 24.8998 39 21.2998 43.5 21.2998C48 21.2998 51.6 24.8998 51.6 29.3998V34.5998Z" fill="#4A9643"/>
<path d="M32.5 33.0996H53.1V35.9996H32.5V33.0996Z" fill="#8DC63F"/>
<path d="M50.9001 50.0996H34.7001L33.2001 36.0996H52.4001L50.9001 50.0996Z" fill="#4A9643"/>
<path d="M53.1 32.9998V38.2998C53.1 39.0998 52.5001 39.7998 51.7001 39.7998C50.9001 39.7998 50.2001 39.1998 50.2001 38.3998C50.2001 38.3998 50.2001 38.3998 50.2001 38.2998C50.2001 39.0998 49.5001 39.7998 48.7001 39.7998C47.9001 39.7998 47.2001 39.0998 47.2001 38.2998C47.2001 39.0998 46.5001 39.7998 45.7001 39.7998C44.9001 39.7998 44.2001 39.0998 44.2001 38.2998C44.2001 38.5998 44.1 38.7998 44 38.9998C43.9 39.1998 43.7 39.3998 43.5 39.4998C43.3 39.5998 43 39.6998 42.8 39.6998C42 39.6998 41.3 38.9998 41.3 38.1998V32.9998C41.3 31.8998 42.2 30.9998 43.3 30.9998H51C52.2 30.8998 53.1 31.7998 53.1 32.9998Z" fill="#F7922C"/>
<path d="M34.7001 50.0996H50.9001V52.9996H34.7001V50.0996Z" fill="#8DC63F"/>
<path d="M47.2001 44.1997H48.7001V47.8997H47.2001V44.1997Z" fill="#8DC63F"/>
<path d="M47.2001 41.2998H48.7001V42.7998H47.2001V41.2998Z" fill="#8DC63F"/>
<path d="M44.3001 38.2998C44.3001 38.5998 44.2001 38.7998 44.1001 38.9998C44.0001 39.1998 43.8001 39.3998 43.6001 39.4998V35.2998H44.3001V38.2998Z" fill="#E08226"/>
<path d="M47.2 38.2999C47.2 38.7999 46.9 39.2999 46.5 39.5999V35.3999H47.2V38.2999Z" fill="#E08226"/>
<path d="M50.1 38.2999C50.1 38.7999 49.8 39.2999 49.4 39.5999V35.3999H50.1V38.2999Z" fill="#E08226"/>
<path d="M39.8001 52.9996H16.2001L17.7001 47.0996H38.3001L39.8001 52.9996Z" fill="#FBB541"/>
<path d="M18.4001 44.1997H37.6001C38.0001 44.1997 38.3001 44.4997 38.3001 44.8997V47.0997H17.7001V44.8997C17.7001 44.4997 18.0001 44.1997 18.4001 44.1997Z" fill="#C27450"/>
<path d="M26.6 47.0996H29.5L30.2001 52.9996H25.8L26.6 47.0996Z" fill="#EB9E2C"/>
<path d="M19.2001 52.9996L20.7001 47.0996H23.6001L22.1001 52.9996H19.2001Z" fill="#EB9E2C"/>
<path d="M28.0001 10.2998C28.8001 10.2998 29.5001 10.9998 29.5001 11.7998V44.1998H26.6001V11.7998C26.6001 10.8998 27.2001 10.2998 28.0001 10.2998Z" fill="#90573C"/>
<path d="M20.7001 27.1997C20.2001 28.5997 19.1 29.6997 17.8 30.0997C19.2 30.5997 20.3001 31.6997 20.7001 32.9997C21.2001 31.5997 22.3 30.4997 23.6 30.0997C22.2 29.6997 21.1001 28.5997 20.7001 27.1997Z" fill="#FDC26B"/>
<path d="M53.1001 18.3999C52.6001 19.7999 51.5001 20.8999 50.2001 21.2999C51.6001 21.7999 52.7001 22.8999 53.1001 24.1999C53.6001 22.7999 54.7001 21.6999 56.0001 21.2999C54.7001 20.8999 53.6001 19.7999 53.1001 18.3999Z" fill="#FDC26B"/>
<path d="M16.2 36.0996C15.7 37.4996 14.6 38.5996 13.3 38.9996C14.7 39.4996 15.8 40.5996 16.2 41.8996C16.7 40.4996 17.8 39.3996 19.1 38.9996C17.8 38.5996 16.7 37.4996 16.2 36.0996Z" fill="#FDC26B"/>
<path d="M32.5 47.0996H35.4L36.9 52.9996H34L32.5 47.0996Z" fill="#EB9E2C"/>
</g>
<defs>
<clipPath id="clip0_0_1">
<rect width="375" height="1712" fill="white" transform="translate(-17 -263)"/>
</clipPath>
</defs>
</svg>
