<svg width="68" height="68" viewBox="0 0 68 68" fill="none" xmlns="http://www.w3.org/2000/svg">
<path d="M33.7 67.4C52.312 67.4 67.4 52.312 67.4 33.7C67.4 15.088 52.312 0 33.7 0C15.088 0 0 15.088 0 33.7C0 52.312 15.088 67.4 33.7 67.4Z" fill="#F1F2F2"/>
<path d="M47.3 52.9996H20C18.3 52.9996 17 51.5996 17 49.9996V24.5996H50.4V49.9996C50.4 51.6996 49 52.9996 47.3 52.9996Z" fill="#B2E3FA"/>
<path d="M41.2 38.7998C41.2 42.8998 37.9 46.2998 33.7 46.2998C32.2 46.2998 30.8 45.8998 29.6 45.0998C28.7 44.4998 28 43.7998 27.4 42.8998C26.6 41.6998 26.2 40.2998 26.2 38.7998C26.2 34.6998 29.5 31.2998 33.7 31.2998C35.2 31.2998 36.6 31.6998 37.8 32.4998C38.7 33.0998 39.4 33.7998 40 34.6998C40.7 35.8998 41.2 37.2998 41.2 38.7998Z" fill="#74C8F0"/>
<path d="M29.6 45.1L40 34.7C39.4 33.8 38.7 33.1 37.8 32.5L27.4 42.9L29.6 45.1Z" fill="#EEF9FE"/>
<path d="M50.4 25.0998H17V17.2998C17 15.5998 18.4 14.2998 20 14.2998H47.3C49 14.2998 50.3 15.6998 50.3 17.2998V25.0998H50.4Z" fill="#8DC63F"/>
<path d="M50.3999 17.2998V25.0998H33.7V14.2998H47.3999C48.9999 14.2998 50.3999 15.5998 50.3999 17.2998Z" fill="#4A9643"/>
<path d="M33.7 48.1C28.6 48.1 24.4 43.9 24.4 38.8C24.4 33.7 28.6 29.5 33.7 29.5C38.8 29.5 43 33.7 43 38.8C43 43.9 38.8 48.1 33.7 48.1ZM33.7 33.1C30.6 33.1 28 35.7 28 38.8C28 41.9 30.6 44.5 33.7 44.5C36.8 44.5 39.4 41.9 39.4 38.8C39.4 35.7 36.8 33.1 33.7 33.1Z" fill="#8DC63F"/>
<path d="M44.7 21.4999C45.6941 21.4999 46.5 20.694 46.5 19.6999C46.5 18.7058 45.6941 17.8999 44.7 17.8999C43.7059 17.8999 42.9 18.7058 42.9 19.6999C42.9 20.694 43.7059 21.4999 44.7 21.4999Z" fill="#39BEB4"/>
<path d="M37.6001 21.4999C38.5942 21.4999 39.4 20.694 39.4 19.6999C39.4 18.7058 38.5942 17.8999 37.6001 17.8999C36.6059 17.8999 35.8 18.7058 35.8 19.6999C35.8 20.694 36.6059 21.4999 37.6001 21.4999Z" fill="#FED941"/>
</svg>
