<svg width="62" height="62" viewBox="0 0 62 62" fill="none" xmlns="http://www.w3.org/2000/svg">
<g clip-path="url(#clip0_464_592)">
<path d="M61.8876 23.8415L51.3487 7.7619C51.2771 7.65242 51.1754 7.56563 51.056 7.51199C51.056 7.51199 36.1582 0.699117 35.4628 0.93706L35.3797 0.965256C32.5555 1.9228 29.4446 1.9228 26.6187 0.964705L26.5372 0.93706C25.8421 0.699117 10.9438 7.51199 10.9438 7.51199C10.8244 7.56577 10.7229 7.65242 10.6511 7.7619L0.112563 23.8415C-0.0643129 24.1113 -0.0297906 24.4677 0.195361 24.6985C0.374163 24.882 4.66484 29.2108 12.4877 30.9736C12.7678 31.0359 13.0579 30.919 13.2148 30.6784L15.2254 27.5955L15.4278 58.68C15.4299 58.9979 15.6496 59.273 15.9592 59.3452C20.8791 60.4944 25.9396 61.069 31.0001 61.069C36.0605 61.069 41.121 60.4944 46.041 59.3452C46.3504 59.273 46.5702 58.9979 46.5723 58.68L46.7747 27.5955L48.7853 30.6784C48.9422 30.9189 49.2324 31.0367 49.5124 30.9736C57.3353 29.2108 61.6259 24.882 61.8048 24.6985C62.0299 24.4677 62.0643 24.1113 61.8876 23.8415ZM51.2058 10.0529L59.1438 22.1643C57.0925 23.6613 53.3707 26.0264 48.4644 27.6687L46.9249 25.3082C49.28 21.5632 50.6719 13.6502 51.2058 10.0529ZM24.0606 3.36257C24.653 5.21082 26.3377 7.41434 31.0001 7.41434C35.6622 7.41434 37.3471 5.21082 37.9395 3.36257C37.9634 3.28802 37.9817 3.21265 37.9964 3.13714L38.7636 3.48278C38.7518 3.52651 38.7394 3.57025 38.7254 3.61358C37.4344 7.6377 33.3316 8.23861 31.0007 8.23861C28.6693 8.23861 24.5656 7.63784 23.2746 3.61316C23.2607 3.56998 23.2483 3.52651 23.2365 3.48291L24.0037 3.13728C24.0184 3.21251 24.0367 3.28788 24.0606 3.36257ZM25.512 2.36926C25.5696 2.31273 25.7051 2.20517 25.9006 2.20517C25.9592 2.20517 26.0232 2.2148 26.0921 2.23832L26.1788 2.26789C29.2878 3.32186 32.7123 3.32186 35.82 2.26844L35.9083 2.23832C36.2069 2.1364 36.4133 2.29567 36.4883 2.36926C36.5627 2.44215 36.7255 2.6442 36.6298 2.94266C35.9714 4.99722 34.0772 6.03895 31.0002 6.03895C27.923 6.03895 26.0288 4.99722 25.3704 2.94266C25.2747 2.6442 25.4376 2.44215 25.512 2.36926ZM15.0752 25.3081L13.5357 27.6685C8.62941 26.0263 4.9076 23.6612 2.85634 22.1642L10.7943 10.0528C11.3282 13.6502 12.7201 21.5632 15.0752 25.3081ZM12.3263 29.5231C6.49315 28.1012 2.75882 25.1494 1.58121 24.1101L2.10124 23.3165C4.48013 25.0507 8.08641 27.249 12.7604 28.8574L12.3263 29.5231ZM45.2004 58.1268C35.898 60.2161 26.1024 60.2161 16.7997 58.1268L16.5859 25.3007C16.5857 25.2573 16.5741 25.2046 16.5583 25.1521C16.5191 25.0231 16.4554 24.904 16.3796 24.7923C13.761 20.931 12.2893 10.9077 11.974 8.55647L21.9716 4.0526C22.6463 6.1388 24.7153 9.61387 31.0009 9.61387C37.2853 9.61387 39.3541 6.13853 40.0287 4.0526L50.0263 8.55647C49.7108 10.9077 48.2391 20.931 45.6206 24.7923C45.545 24.9038 45.4812 25.023 45.442 25.1521C45.426 25.2046 45.4146 25.2573 45.4143 25.3007L45.2004 58.1268ZM49.6738 29.5231L49.2396 28.8574C53.9137 27.2492 57.52 25.0509 59.8989 23.3165L60.4189 24.11C59.2406 25.1498 55.5065 28.1014 49.6738 29.5231Z" fill="#4A9500"/>
</g>
<defs>
<clipPath id="clip0_464_592">
<rect width="62" height="62" fill="white"/>
</clipPath>
</defs>
</svg>
