<svg width="78" height="78" viewBox="0 0 78 78" fill="none" xmlns="http://www.w3.org/2000/svg">
<path d="M67.374 25.4134C67.0117 25.4134 66.6623 25.4702 66.3145 25.5206V24.4286C66.3145 21.2924 63.7649 18.7411 60.627 18.7411H17.3728C14.2365 18.7411 11.6853 21.2924 11.6853 24.4286V25.4881C11.3359 25.4377 10.98 25.4101 10.6225 25.4101C9.53054 25.4101 8.47104 25.6474 7.47654 26.117C4.90904 27.3292 3.24829 29.9471 3.24829 32.786V46.6375C3.24829 50.1572 6.11479 53.0237 9.63454 53.0237H14.4965L11.955 58.0824C11.7519 58.4821 11.9144 58.9712 12.3142 59.1727C12.4312 59.2312 12.5547 59.2589 12.6798 59.2589C12.9788 59.2589 13.2632 59.0947 13.4062 58.8136L16.3165 53.0237H61.6833L64.5969 58.8136C64.7399 59.0964 65.0259 59.2589 65.32 59.2589C65.4435 59.2589 65.567 59.2312 65.6857 59.1727C66.0887 58.9712 66.2479 58.4821 66.048 58.0824L63.5049 53.0237H68.3669C71.8899 53.0237 74.7532 50.1572 74.7532 46.6375V32.7876C74.7499 28.7219 71.443 25.4134 67.374 25.4134ZM13.3103 24.4286C13.3103 22.1894 15.1319 20.3661 17.3728 20.3661H60.627C62.8679 20.3661 64.6895 22.1894 64.6895 24.4286V25.9366C61.9482 27.0156 59.9965 29.6709 59.9965 32.7876C59.9965 35.6265 61.6557 38.2444 64.2264 39.4582C64.3662 39.5249 64.4588 39.6662 64.4588 39.8206V40.7599H13.5459V39.8206C13.5459 39.6646 13.632 39.5249 13.775 39.4582C17.454 37.7211 19.0335 33.3174 17.298 29.6384C16.4855 27.9159 15.0312 26.6191 13.3119 25.9415L13.3103 24.4286ZM73.1249 46.6375C73.1249 49.2619 70.9897 51.3987 68.3637 51.3987H9.63617C7.01179 51.3987 4.87492 49.2619 4.87492 46.6375V32.7876C4.87492 30.5727 6.17004 28.5317 8.17204 27.5876C8.94717 27.222 9.77104 27.0367 10.6225 27.0367C12.8374 27.0367 14.8817 28.3302 15.8274 30.3339C17.1794 33.202 15.9477 36.6356 13.0828 37.9876C12.3743 38.3207 11.9209 39.039 11.9209 39.819V41.5707C11.9209 42.0192 12.2833 42.3832 12.7334 42.3832H65.2697C65.7165 42.3832 66.0822 42.0192 66.0822 41.5707V39.819C66.0822 39.0406 65.6255 38.3207 64.9203 37.9876C62.9183 37.0419 61.6232 35.0009 61.6232 32.786C61.6232 29.6156 64.2037 27.0351 67.374 27.0351C70.5444 27.0351 73.1249 29.614 73.1249 32.786V46.6375Z" fill="#4A9500"/>
<path d="M39.0001 27.6494C40.409 27.6494 41.5579 26.5021 41.5579 25.0933C41.5579 23.6844 40.409 22.5339 39.0001 22.5339C37.5913 22.5339 36.4424 23.6811 36.4424 25.0916C36.4424 26.5021 37.5913 27.6494 39.0001 27.6494ZM39.0001 24.1589C39.5136 24.1589 39.9329 24.5781 39.9329 25.0916C39.9329 25.6051 39.5136 26.0244 39.0001 26.0244C38.4866 26.0244 38.0674 25.6068 38.0674 25.0933C38.0674 24.5798 38.4866 24.1589 39.0001 24.1589Z" fill="#4A9500"/>
<path d="M39.0001 34.3671C40.409 34.3671 41.5579 33.2199 41.5579 31.8094C41.5579 30.4005 40.409 29.2533 39.0001 29.2533C37.5913 29.2533 36.4424 30.4005 36.4424 31.8094C36.4424 33.2199 37.5913 34.3671 39.0001 34.3671ZM39.0001 30.8783C39.5136 30.8783 39.9329 31.2959 39.9329 31.8094C39.9329 32.3245 39.5136 32.7421 39.0001 32.7421C38.4866 32.7421 38.0674 32.3245 38.0674 31.8094C38.0674 31.2959 38.4866 30.8783 39.0001 30.8783Z" fill="#4A9500"/>
<path d="M51.5337 27.6494C52.9459 27.6494 54.0915 26.5021 54.0915 25.0933C54.0915 23.6844 52.9459 22.5355 51.5337 22.5355C50.1249 22.5355 48.9792 23.6828 48.9792 25.0933C48.9792 26.5038 50.1249 27.6494 51.5337 27.6494ZM51.5337 24.1589C52.0472 24.1589 52.4665 24.5781 52.4665 25.0916C52.4665 25.6051 52.0472 26.0228 51.5337 26.0228C51.0202 26.0228 50.6042 25.6051 50.6042 25.0916C50.6042 24.5798 51.0186 24.1589 51.5337 24.1589Z" fill="#4A9500"/>
<path d="M51.5337 34.3671C52.9459 34.3671 54.0915 33.2199 54.0915 31.8094C54.0915 30.4005 52.9459 29.2533 51.5337 29.2533C50.1249 29.2533 48.9792 30.4005 48.9792 31.8094C48.9792 33.2199 50.1249 34.3671 51.5337 34.3671ZM51.5337 30.8783C52.0472 30.8783 52.4665 31.2959 52.4665 31.8094C52.4665 32.3245 52.0472 32.7421 51.5337 32.7421C51.0202 32.7421 50.6042 32.3245 50.6042 31.8094C50.6042 31.2959 51.0186 30.8783 51.5337 30.8783Z" fill="#4A9500"/>
<path d="M26.4662 27.6494C27.8751 27.6494 29.0239 26.5021 29.0239 25.0933C29.0239 23.6844 27.8751 22.5355 26.4662 22.5355C25.0573 22.5355 23.9084 23.6828 23.9084 25.0933C23.9084 26.5038 25.0573 27.6494 26.4662 27.6494ZM26.4662 24.1589C26.9797 24.1589 27.3989 24.5781 27.3989 25.0916C27.3989 25.6051 26.9797 26.0228 26.4662 26.0228C25.9527 26.0228 25.5334 25.6051 25.5334 25.0916C25.5334 24.5798 25.9527 24.1589 26.4662 24.1589Z" fill="#4A9500"/>
<path d="M26.4662 34.3671C27.8751 34.3671 29.0239 33.2199 29.0239 31.8094C29.0239 30.4005 27.8751 29.2533 26.4662 29.2533C25.0573 29.2533 23.9084 30.4005 23.9084 31.8094C23.9084 33.2199 25.0573 34.3671 26.4662 34.3671ZM26.4662 30.8783C26.9797 30.8783 27.3989 31.2959 27.3989 31.8094C27.3989 32.3245 26.9797 32.7421 26.4662 32.7421C25.9527 32.7421 25.5334 32.3245 25.5334 31.8094C25.5334 31.2959 25.9527 30.8783 26.4662 30.8783Z" fill="#4A9500"/>
</svg>
