<svg width="68" height="68" viewBox="0 0 68 68" fill="none" xmlns="http://www.w3.org/2000/svg">
<path d="M33.7 67.4C52.312 67.4 67.4 52.312 67.4 33.7C67.4 15.088 52.312 0 33.7 0C15.088 0 0 15.088 0 33.7C0 52.312 15.088 67.4 33.7 67.4Z" fill="#F1F2F2"/>
<path d="M22 43.6997C20.5 47.6997 21.9 52.0997 22 52.2997L22.4 53.3997L23.5 53.1997C23.7 53.1997 28.2 52.1997 30.9 48.8997L32 37.1997L22 43.6997Z" fill="#FBBF12"/>
<path d="M19.6 28.5996C15.4 29.2996 12.2 32.6996 12.1 32.8996L11.3 33.7996L12.1 34.6996C12.2 34.7996 15.4 38.2996 19.6 38.9996L28.2 33.8996L19.6 28.5996Z" fill="#FBBF12"/>
<path d="M23.5 14.2996L22.4 14.0996L22 15.1996C21.9 15.3996 20.5 19.7996 22 23.7996L29.4 27.7996L30.9 18.6996C28.2 15.2996 23.7 14.2996 23.5 14.2996Z" fill="#FBBF12"/>
<path d="M25.6 34.3998C23.4 34.2998 21.3 34.7998 19.7 35.6998C15.5 38.0998 14.3 43.6998 14.2 43.8998L14 44.9998L15.1 45.3998C15.2 45.3998 17.2 46.0998 19.6 46.0998C21.3 46.0998 23.2 45.7998 25 44.7998C26.6 43.8998 28 42.2998 29.1 40.2998L25.6 34.3998Z" fill="#FDD92E"/>
<path d="M25.0001 22.6C20.8001 20.2 15.4001 21.9 15.2001 22L14.1001 22.4L14.3001 23.5C14.3001 23.7 15.6001 29.3 19.8001 31.7C21.4001 32.6 23.5001 33.1 25.8001 33L29.2001 27.1C28.0001 25.1 26.6001 23.6 25.0001 22.6Z" fill="#FDD92E"/>
<path d="M45.4 15.1L45 14L43.9 14.2C43.7 14.2 39.2 15.2 36.5 18.5L35.4 30.2L45.4 23.6C46.9 19.7 45.5 15.3 45.4 15.1Z" fill="#F7911E"/>
<path d="M55.3001 32.8C55.2001 32.7 52.0001 29.2 47.8001 28.5L39.2001 33.6L47.8001 38.7C52.0001 38 55.2001 34.6 55.3001 34.4L56.1001 33.5L55.3001 32.8Z" fill="#F7911E"/>
<path d="M45.4 43.6997L38 39.6997L36.5 48.7997C39.2 52.0997 43.7 53.0997 43.9 53.0997L45 53.2997L45.4 52.1997C45.5 52.0997 46.9 47.6997 45.4 43.6997Z" fill="#F7911E"/>
<path d="M52.3 22C52.1 21.9 46.7 20.2 42.5 22.6C40.9 23.5 39.5 25.1 38.4 27.1L41.8 33C44 33.1 46.1 32.6 47.7 31.7C51.9 29.3 53.1 23.7 53.2 23.5L53.4 22.4L52.3 22Z" fill="#FBBF12"/>
<path d="M53.1001 43.8998C53.1001 43.6998 51.8001 38.0998 47.6001 35.6998C46.0001 34.7998 43.9001 34.2998 41.6001 34.3998L38.2001 40.2998C39.3001 42.2998 40.6001 43.7998 42.3001 44.7998C44.0001 45.7998 46.0001 46.0998 47.7001 46.0998C50.1001 46.0998 52.1001 45.4998 52.2001 45.3998L53.3001 44.9998L53.1001 43.8998Z" fill="#FBBF12"/>
<path d="M38.9 46.3996C38.9 51.2996 34.7 55.1996 34.5 55.2996L33.6 56.0996L32.7 55.2996C32.5 55.0996 28.3 51.2996 28.3 46.3996C28.3 44.4996 28.9 42.4996 30.1 40.5996H33.5H36.9C38.3 42.4996 38.9 44.4996 38.9 46.3996Z" fill="#FDD92E"/>
<path d="M37.1001 40.5996C38.3001 42.4996 39.0001 44.4996 39.0001 46.3996C39.0001 51.2996 34.8001 55.1996 34.6001 55.2996L33.7001 56.0996V40.5996H37.1001Z" fill="#FBBF12"/>
<path d="M38.9 21.0999C38.9 23.0999 38.2 25.2999 36.7 27.2999H30.5C29.1 25.2999 28.3 23.0999 28.3 21.0999C28.3 16.1999 32.5 12.2999 32.7 12.1999L33.6 11.3999L34.5 12.1999C34.7 12.2999 38.9 16.1999 38.9 21.0999Z" fill="#FDD92E"/>
<path d="M36.8001 27.2998H33.7001V11.2998L34.6001 12.0998C34.8001 12.2998 39.0001 16.0998 39.0001 20.9998C38.9001 23.0998 38.2001 25.2998 36.8001 27.2998Z" fill="#FBBF12"/>
<path d="M33.7 24.5C28.6 24.5 24.5 28.6 24.5 33.7C24.5 38.8 28.6 42.9 33.7 42.9C38.8 42.9 42.9 38.8 42.9 33.7C42.9 28.7 38.7 24.5 33.7 24.5Z" fill="#8DC63F"/>
<path d="M42.9001 33.7C42.9001 38.8 38.8001 42.9 33.7001 42.9V24.5C38.7001 24.5 42.9001 28.7 42.9001 33.7Z" fill="#6FA642"/>
<path d="M35 29.7998H32.4V32.3998H35V29.7998Z" fill="#4A9643"/>
<path d="M35 35H32.4V37.6H35V35Z" fill="#4A9643"/>
<path d="M32.4 32.3999H29.8V34.9999H32.4V32.3999Z" fill="#4A9643"/>
<path d="M37.6 32.3999H35V34.9999H37.6V32.3999Z" fill="#4A9643"/>
<path d="M35.0001 29.7998H33.7001V32.3998H35.0001V29.7998Z" fill="#4A9643"/>
<path d="M35.0001 35H33.7001V37.6H35.0001V35Z" fill="#4A9643"/>
</svg>
