<svg width="68" height="68" viewBox="0 0 68 68" fill="none" xmlns="http://www.w3.org/2000/svg">
<path d="M67.4 33.7C67.4 52.3 52.3 67.4 33.7 67.4C15.1 67.4 0 52.3 0 33.7C0 15.1 15.1 0 33.7 0C52.3 0.1 67.4 15.1 67.4 33.7Z" fill="#F1F2F2"/>
<path d="M54.4001 33.5001L34.1001 21.5001C33.9001 21.3001 33.5 21.3001 33.3 21.5001L13.0001 33.5001C12.9001 33.6001 12.8 33.7001 12.8 33.9001L33.7001 42.8001L54.6001 33.9001C54.6001 33.7001 54.5001 33.6001 54.4001 33.5001Z" fill="#74C8F0"/>
<path d="M49.4001 44.8H18.1001V14.1C18.1001 13.8 18.4001 13.5 18.7001 13.5H48.8001C49.1001 13.5 49.4001 13.8 49.4001 14.1V44.8Z" fill="#6FA642"/>
<path d="M23.5 13.5H18.6C18.3 13.5 18 13.8 18 14.1V44.8H22.9V14.1C23 13.8 23.2 13.5 23.5 13.5Z" fill="#6FA642"/>
<path d="M46.8 44.8001H20.7001V16.7001C20.7001 16.4001 21 16.1001 21.3 16.1001H46.2001C46.5001 16.1001 46.8 16.4001 46.8 16.7001V44.8001Z" fill="#8DC63F"/>
<path d="M23.5001 16.1001H21.3C21 16.1001 20.7001 16.4001 20.7001 16.7001V44.8001H22.9001V16.7001C23.0001 16.4001 23.2001 16.1001 23.5001 16.1001Z" fill="#8DC63F"/>
<path d="M54 53.8998H13.5C13.2 53.8998 12.9 53.5998 12.9 53.2998V33.7998L33.8 42.6998L54.7 33.7998V53.2998C54.6 53.6998 54.3 53.8998 54 53.8998Z" fill="#B2E3FA"/>
<path d="M54 53.8999H13.5C13.2 53.8999 12.9 53.5999 12.9 53.2999V51.1999L33.5 40.0999C33.7 39.9999 33.9 39.9999 34.1 40.0999L54.7 51.1999V53.2999C54.6 53.6999 54.3 53.8999 54 53.8999Z" fill="#F9EFAA"/>
<path d="M54 53.8999H13.5C13.2 53.8999 12.9 53.5999 12.9 53.2999V51.1999L33.5 40.0999C33.7 39.9999 33.9 39.9999 34.1 40.0999L54.7 51.1999V53.2999C54.6 53.6999 54.3 53.8999 54 53.8999Z" fill="#B2E3FA"/>
<path d="M36.5 24.8998C38.2 23.1998 37 20.2998 34.6 20.2998C33.8 20.2998 33 20.6998 32.5 21.2998C32.3 21.5998 31.9 21.5998 31.6 21.2998C31.1 20.6998 30.4 20.2998 29.5 20.2998C27.1 20.2998 25.9 23.1998 27.6 24.8998L31.6 28.8998C31.8 29.0998 32.2 29.0998 32.4 28.8998C33.6 27.7998 36.5 24.8998 36.5 24.8998Z" fill="#FFE07E"/>
<path d="M30.2 24.8998C28.9 23.4998 29.4 21.3998 30.9 20.5998C30.5 20.3998 30.1 20.2998 29.6 20.2998C27.2 20.2998 26 23.1998 27.7 24.8998C27.7 24.8998 30.6 27.7998 31.7 28.8998C31.9 29.0998 32.3 29.0998 32.5 28.8998C32.7 28.6998 33 28.3998 33.4 27.9998C32.2 26.7998 30.2 24.8998 30.2 24.8998Z" fill="#FDC26B"/>
<path d="M40.1 26.7999C41.1 25.6999 40.4 23.8999 38.9 23.8999C38.4 23.8999 38 24.0999 37.7 24.3999C37.5 24.5999 37.1 24.5999 36.9 24.3999C36.6 24.0999 36.2 23.8999 35.7 23.8999C34.2 23.8999 33.5 25.6999 34.5 26.7999L36.9 29.1999C37.1 29.3999 37.5 29.3999 37.7 29.1999C39.4 27.4999 40.1 26.7999 40.1 26.7999Z" fill="#FFE07E"/>
<path d="M37.0001 26.7999C36.3001 26.0999 36.4001 25.0999 37.0001 24.3999C36.7001 24.0999 36.3001 23.8999 35.8001 23.8999C34.3001 23.8999 33.6001 25.6999 34.6001 26.7999L37.0001 29.1999C37.2001 29.3999 37.6001 29.3999 37.8001 29.1999C38.1001 28.8999 38.4001 28.5999 38.6001 28.3999L37.0001 26.7999Z" fill="#FDC26B"/>
<path d="M40.2001 33.9002H27.2001C26.9001 33.9002 26.6001 33.6002 26.6001 33.3002C26.6001 33.0002 26.9001 32.7002 27.2001 32.7002H40.2001C40.5001 32.7002 40.8001 33.0002 40.8001 33.3002C40.9001 33.6002 40.6001 33.9002 40.2001 33.9002Z" fill="#6FA642"/>
<path d="M37.6001 36.5003H29.8C29.5 36.5003 29.2001 36.2003 29.2001 35.9003C29.2001 35.6003 29.5 35.3003 29.8 35.3003H37.6001C37.9001 35.3003 38.2001 35.6003 38.2001 35.9003C38.3001 36.2003 38.0001 36.5003 37.6001 36.5003Z" fill="#6FA642"/>
<path d="M30.9 41.5001L27.5 40.1001L12.9 48.0001V51.2001C12.9 51.2001 12.9 51.2001 12.9 51.3001L30.9 41.5001Z" fill="#74C8F0"/>
<path d="M36.6001 41.5L54.6001 51.2C54.6001 51.2 54.6001 51.2 54.6001 51.1V47.9L40.0001 40L36.6001 41.5Z" fill="#74C8F0"/>
</svg>
