<svg width="68" height="68" viewBox="0 0 68 68" fill="none" xmlns="http://www.w3.org/2000/svg">
<path d="M67.4 33.7C67.4 52.3 52.3 67.4 33.7 67.4C15.1 67.4 0 52.3 0 33.7C0 15.1 15.1 0 33.7 0C52.3 0.1 67.4 15.1 67.4 33.7Z" fill="#F1F2F2"/>
<path d="M26.8 20.5001V17.1001H31.3V20.5001" fill="#74C8F0"/>
<path d="M38.1 31.5C38.1 30.7 37.4 30 36.6 30H21.5C20.7 30 20 30.7 20 31.5V53.4C20 54.2 20.7 54.9 21.5 54.9H36.6C37.4 54.9 38.1 54.2 38.1 53.4V31.5Z" fill="#6FA642"/>
<path d="M36.6 30H21.5V51.9C21.5 52.7 22.2 53.4 23 53.4H38.1V31.5C38.1 30.6 37.4 30 36.6 30Z" fill="#8DC63F"/>
<path d="M29 36C25.7 36 23 38.7 23 42C23 45.3 25.7 48 29 48C32.3 48 35 45.3 35 42C35.1 38.7 32.4 36 29 36ZM29 37.5C29.9 37.5 30.9 37.8 31.6 38.3L25.3 44.6C23.8 42.6 24.3 39.7 26.4 38.3C27.2 37.8 28.1 37.5 29 37.5ZM29 46.5C28.1 46.5 27.1 46.2 26.4 45.7L32.7 39.4C34.2 41.4 33.7 44.3 31.6 45.7C30.9 46.3 30 46.6 29 46.5Z" fill="#FFE07E"/>
<path d="M22.2 26.9001C22.2 23.1001 25.1999 20.1001 28.9999 20.1001C32.7999 20.1001 35.7999 23.1001 35.7999 26.9001" fill="#6FA642"/>
<path d="M21.5 30C20.7 30 20 29.3 20 28.5C20 27.7 20.7 27 21.5 27H36.6C37.4 27 38.1 27.7 38.1 28.5C38.1 29.3 37.4 30 36.6 30" fill="#74C8F0"/>
<path d="M31.3 17.8999H33.6001V19.3999H31.3V17.8999Z" fill="#74C8F0"/>
<path d="M40.3 20.0999H36.6V18.5999H40.4C40.8 18.5999 41.2 18.2999 41.2 17.7999C41.2 17.3999 40.9 16.9999 40.4 16.9999C39.1 16.9999 38.1 15.9999 38.1 14.6999C38.1 13.3999 39.1 12.3999 40.4 12.3999H47.2V13.8999H40.4C40 13.8999 39.6 14.1999 39.6 14.6999C39.6 15.0999 39.9 15.4999 40.4 15.4999C41.7 15.4999 42.7 16.4999 42.7 17.7999C42.7 19.0999 41.6 20.0999 40.3 20.0999Z" fill="#FFE07E"/>
<path d="M36.6 26.8999H21.5C21.5 27.6999 22.2 28.3999 23 28.3999H38.1C38.1 27.5999 37.4 26.8999 36.6 26.8999Z" fill="#B2E3FA"/>
<path d="M29.8 20.1997C26.4 20.5997 23.8 23.4997 23.8 26.8997H35.9001C35.8001 23.4997 33.2 20.5997 29.8 20.1997Z" fill="#8DC63F"/>
<path d="M26.8 17.1001H31.3V19.4001H26.8V17.1001Z" fill="#B2E3FA"/>
</svg>
