<svg width="68" height="68" viewBox="0 0 68 68" fill="none" xmlns="http://www.w3.org/2000/svg">
<path d="M33.7 67.4C52.312 67.4 67.4 52.312 67.4 33.7C67.4 15.088 52.312 0 33.7 0C15.088 0 0 15.088 0 33.7C0 52.312 15.088 67.4 33.7 67.4Z" fill="#F1F2F2"/>
<path d="M44.7 31.2002H56.1V35.1002C56.1 36.1002 55.3 36.9002 54.3 36.9002H50.2L47.8 38.1002L44.7 36.9002V31.2002Z" fill="#FFE07E"/>
<path d="M46.5 25.5H54.3C55.3 25.5 56.1 26.3 56.1 27.3V30.2H44.7V27.3C44.7 26.3 45.5 25.5 46.5 25.5Z" fill="#FFE07E"/>
<path d="M44.7 29.2998H56.1V32.0998H44.7V29.2998Z" fill="#8DC63F"/>
<path d="M53.6999 29.3H55.1999H56.0999V27.3C56.0999 26.6 55.6999 26.1 55.1999 25.7C54.8999 25.6 54.6999 25.5 54.2999 25.5H51.8999C52.8999 25.5 53.6999 26.3 53.6999 27.3V29.3Z" fill="#FDC26B"/>
<path d="M53.7 32.0998H55.2H56.1V31.1998V30.1998V29.2998H55.2H53.7V30.1998V31.1998V32.0998Z" fill="#6FA642"/>
<path d="M53.6999 32.1001V35.2001C53.6999 36.2001 52.8999 37.0001 51.8999 37.0001H54.2999C54.5999 37.0001 54.8999 36.9001 55.1999 36.8001C55.6999 36.5001 56.0999 35.9001 56.0999 35.2001V32.1001H55.1999H53.6999Z" fill="#FDC26B"/>
<path d="M44.7 37H50.2V39.5C50.2 40.1 49.7 40.6 49.1 40.6H31.2C31.2 39 31.1999 38.2 32.3999 38.2H34.8C36.3 38.2 37.2999 37.8 37.8999 37H44.7Z" fill="#706672"/>
<path d="M33.3999 40.6001H49.1999C50.0999 42.2001 50.8999 44.1001 50.1999 47.8001C49.0999 44.2001 38.1999 45.6001 37.0999 49.8001H25.0999C24.5999 48.8001 24.1999 47.8001 23.7999 46.7001H27.1999C33.9999 44.2001 31.7999 45.4001 33.3999 40.6001Z" fill="#FFE07E"/>
<path d="M32.4 30.6999C32.6 31.8999 33 33.1999 33.3 34.1999L36.8 35.5999L40.7 34.1999C40.6 26.8999 37.8 23.3999 35.5 22.2999C34.7 21.6999 33.8 21.3999 33.8 21.3999C33.8 21.3999 32.7 23.1999 32.6 23.1999C32.2 24.1999 32 25.5999 32 26.9999L32.4 30.6999Z" fill="#EBEAEC"/>
<path d="M40.6 34.2002H33.3C31.6 34.4002 29.5 35.7002 29.5 39.6002V43.8002L31.2 44.8002L33.4 43.8002V40.6002C33.4 39.0002 33.4 38.2002 34.6 38.2002H37C38.5 38.2002 39.5 37.8002 40.1 37.0002C40.5 36.3002 40.7 35.4002 40.6 34.2002Z" fill="#8DC63F"/>
<path d="M40.5999 34.1998C40.4999 26.8998 37.6999 23.3998 35.3999 22.2998C35.0999 22.4998 34.6999 22.6998 34.2999 22.8998C36.3999 24.4998 38.3999 27.8998 38.4999 34.2998L40.5999 34.1998Z" fill="#DBD8DB"/>
<path d="M40.5999 34.2002H38.4999C38.5999 35.4002 38.3999 36.3002 37.9999 37.0002C37.5999 37.5002 37.0999 38.0002 36.3999 38.2002H36.9999C38.4999 38.2002 39.4999 37.8002 40.0999 37.0002C40.4999 36.3002 40.6999 35.4002 40.5999 34.2002Z" fill="#6FA642"/>
<path d="M37.1 49.9001C37.1 46.1001 40.1 43.1001 43.8 43.1001C46.8 43.1001 49.3 45.1001 50.2 47.9001C50.4 48.5001 50.5 49.1001 50.5 49.7001C50.5 49.9001 50.3 49.9001 50.1 49.9001C45.7 49.9001 41.4 49.9001 37.1 49.9001Z" fill="#8DC63F"/>
<path d="M38.7999 49.8999H48.9999C48.8999 52.5999 46.5999 54.7999 43.8999 54.7999C41.0999 54.7999 38.8999 52.5999 38.7999 49.8999Z" fill="#706672"/>
<path d="M12.8999 48.7998L21.6999 50.7998C21.0999 53.1998 18.6999 54.6998 16.2999 54.1998C13.7999 53.5998 12.2999 51.1998 12.8999 48.7998Z" fill="#706672"/>
<path d="M12.2 46.3C13.4 44.5 15.6 43.5 17.8 43.7C21.8 44.5 23.1 46.9 23.3 49.9C23.3 50.3 23.3 50.7 23.2 51.1C23.2 51.2 23.1 51.2 23 51.1L21.6 50.8L12.8 48.8L12.1 48.6L11.2 48.4C11.5 47.6 11.8 46.9 12.2 46.3Z" fill="#EBEAEC"/>
<path d="M17.8999 43.6998L21.3999 31.4998L22.9999 30.7998L24.7999 31.4998C22.4999 37.9998 23.0999 42.4998 24.6999 46.7998C25.0999 47.7998 25.4999 48.7998 25.9999 49.8998H23.4999L17.8999 43.6998Z" fill="#8DC63F"/>
<path d="M28.8 17.6998L33 16.7998C33.4 16.7998 34.6 17.8998 34.6 18.4998L33.7 22.9998C33.3 23.0998 32.9 23.1998 32.5 23.1998C30.3 23.1998 28.5 21.3998 28.5 19.1998C28.6 18.6998 28.6 18.1998 28.8 17.6998Z" fill="#FEEDE5"/>
<path d="M27.5 17.7C27.5 14.8 29.8 12.5 32.6 12.5C35.4 12.5 37.7 14.8 37.7 17.7C37.7 19.6 36.9 21.3 35.5 22.2C35 22.6 34.4 22.8 33.8 23V18.5C33.8 17.9 33.5 17.7 33.1 17.7H28.9H27.5Z" fill="#8DC63F"/>
<path d="M29.8999 13.3C30.6999 12.8 31.5999 12.5 32.4999 12.5C35.2999 12.5 37.5999 14.8 37.5999 17.7C37.5999 19.6 36.7999 21.3 35.3999 22.2C34.9999 22.4 34.6999 22.6 34.1999 22.8C35.1999 21.8 35.7999 20.3 35.7999 18.6C35.7999 15.6 33.3999 13.2 30.4999 13.2C30.2999 13.3 30.0999 13.3 29.8999 13.3Z" fill="#6FA642"/>
<path d="M29.5 43.7998H33.3V46.1998C33.3 46.6998 33 46.7998 32.6 46.7998H27.1C27.1 44.3998 28.5 43.7998 29.5 43.7998Z" fill="#706672"/>
<path d="M24.6999 46.8C23.0999 42.5 22.4999 37.9 24.7999 31.5H23.4999H22.9999C20.6999 38 21.2999 42.5 22.8999 46.8C23.2999 47.8 23.6999 48.8 24.1999 49.9H25.0999H25.9999C25.4999 48.8 25.0999 47.8 24.6999 46.8Z" fill="#6FA642"/>
<path d="M23.3999 49.9001L17.8999 43.7001C17.2999 43.6001 16.8 43.7001 16.2 43.8001L21.5 49.7001C21.5 50.0001 21.4999 50.4001 21.3999 50.7001L21.7 50.8001L23.1 51.1001C23.2 51.1001 23.3 51.2001 23.3 51.1001C23.3 50.7001 23.3999 50.3001 23.3999 49.9001Z" fill="#DBD8DB"/>
<path d="M49.0999 40.6001H33.2999V42.0001H46.1999C47.2999 42.0001 47.7999 42.5001 48.1999 43.4001C48.5999 44.2001 48.5999 44.5001 48.6999 45.4001C49.2999 46.1001 49.7999 46.9001 49.9999 47.9001C50.7999 44.1001 49.9999 42.2001 49.0999 40.6001Z" fill="#FDC26B"/>
<path d="M48.7999 45.4001C47.5999 44.0001 45.7999 43.1001 43.7999 43.1001C43.2999 43.1001 42.7999 43.2001 42.2999 43.3001C45.2999 44.0001 47.3999 46.6001 47.4999 49.7001C47.4999 49.9001 47.3999 49.9001 47.2999 49.9001H48.8999H49.9999C50.1999 49.9001 50.3999 49.9001 50.3999 49.7001C50.3999 49.1001 50.2999 48.5001 50.0999 47.9001C49.8999 46.9001 49.3999 46.1001 48.7999 45.4001Z" fill="#6FA642"/>
<path d="M21.3999 50.7002L12.8999 48.7002C12.7999 49.1002 12.7999 49.5002 12.7999 49.9002L19.4999 51.5002L19.7999 51.6002C19.4999 52.7002 18.8999 53.6002 18.0999 54.2002C19.7999 53.9002 21.2999 52.6002 21.6999 50.8002L21.3999 50.7002Z" fill="#5E5461"/>
<path d="M47.3 49.8998H38.7C38.7 50.3998 38.8 50.9998 39 51.3998H45H46.6C46.5 52.5998 46.0999 53.6998 45.3999 54.4998C47.3999 53.8998 48.7999 51.9998 48.8999 49.7998L47.3 49.8998Z" fill="#5E5461"/>
<path d="M50.2 39.5V37H46.7V39.5C46.7 40.1 46.2 40.6 45.6 40.6H49.1C49.7 40.6 50.2 40.1 50.2 39.5Z" fill="#5E5461"/>
<path d="M28.6 18.7001H32C32.4 18.7001 32.7 18.9001 32.7 19.5001V23.1001C33 23.1001 33.4 23.0001 33.7 22.9001V18.4001C33.7 17.8001 33.4 17.6001 33 17.6001H28.8C28.7 18.0001 28.6 18.4001 28.6 18.7001Z" fill="#FDDCCE"/>
<path d="M20.7 27.5998L25.5 29.1998C25.7 29.3998 25.5 31.4998 25.3 31.4998H21.5H19.8V27.9998C19.7 27.1998 20.1 27.3998 20.7 27.5998Z" fill="#FFE07E"/>
<path d="M27.7 31.3999H27.3H25.3C24 31.3999 24 29.1999 25.5 29.0999L27.7 28.8999L28.3 30.1999L27.7 31.3999Z" fill="#FEEDE5"/>
<path d="M32 27L32.8 26.3C34.8 24.6 37.3 27.5 34.7 29.2L32.3999 30.7L31.3 31.4H27.7V29L29.8999 28.8L32 27Z" fill="#8DC63F"/>
<path d="M27.7 31.4002V30.2002H27.2H26.9H26.5H24.5C24.4 30.2002 24.4 30.2002 24.3 30.2002C24.2 30.8002 24.6 31.4002 25.3 31.4002H27.3H27.7Z" fill="#FDDCCE"/>
<path d="M34.6 29.2C36.2 28.1 35.9 26.7 35 26C35.1 26.6 34.8 27.4 33.9 28L32.1 29.1L31.6 29.4L30.5 30.1H27.6V31.3H31.2L32.3 30.6L34.6 29.2Z" fill="#6FA642"/>
<path d="M25.3999 29.2001L23.4999 28.6001C22.8999 29.3001 22.4999 30.6001 22.9999 31.5001H24.7999H25.2999C24.5999 31.5001 24.2999 30.9001 24.2999 30.3001C24.3999 29.7001 24.6999 29.2001 25.3999 29.2001Z" fill="#FDC26B"/>
</svg>
